<svg width="35" height="14" viewBox="0 0 35 14" fill="none" xmlns="http://www.w3.org/2000/svg">
<path d="M34.2738 7.69012C34.4001 7.38445 34.4001 7.0412 34.2738 6.73553C34.2128 6.58397 34.1227 6.44584 34.0086 6.32894L28.7053 1.02564C28.4709 0.79122 28.153 0.659525 27.8214 0.659525C27.4899 0.659525 27.172 0.791221 26.9376 1.02564C26.7031 1.26006 26.5714 1.578 26.5714 1.90952C26.5714 2.24105 26.7031 2.55899 26.9376 2.79341L30.1107 5.96655H4.31898L7.49213 2.79341C7.72655 2.55899 7.85824 2.24105 7.85824 1.90952C7.85824 1.578 7.72655 1.26006 7.49213 1.02564C7.25771 0.791221 6.93976 0.659525 6.60824 0.659525C6.27672 0.659525 5.95878 0.79122 5.72436 1.02564L0.421058 6.32894C0.306951 6.44584 0.216866 6.58397 0.155894 6.73553C0.0296093 7.0412 0.029608 7.38445 0.155893 7.69012C0.216864 7.84168 0.30695 7.97981 0.421058 8.09671L5.72436 13.4C5.95878 13.6344 6.27672 13.7661 6.60824 13.7661C6.93976 13.7661 7.25771 13.6344 7.49213 13.4C7.72655 13.1656 7.85824 12.8476 7.85824 12.5161C7.85824 12.1846 7.72655 11.8667 7.49213 11.6322L4.31898 8.4591H30.1107L26.9376 11.6322C26.7031 11.8667 26.5714 12.1846 26.5714 12.5161C26.5714 12.8476 26.7031 13.1656 26.9376 13.4C27.172 13.6344 27.4899 13.7661 27.8214 13.7661C28.153 13.7661 28.4709 13.6344 28.7053 13.4L34.0086 8.09671C34.1227 7.97981 34.2128 7.84168 34.2738 7.69012Z" fill="#3E444B"/>
</svg>
