<svg width="573" height="320" viewBox="0 0 573 320" fill="none" xmlns="http://www.w3.org/2000/svg">
<g clip-path="url(#clip0_738_2164)">
<path d="M152.5 244.82L135 249.5L119 195.5L135 168.5L161 180.5L178 238L161 242.547M152.5 244.82L145 217.5L152.5 215L161 242.547M152.5 244.82L161 242.547M137.5 190L141 202.5L148.5 200L145 188L137.5 190Z" stroke="#586068" stroke-width="2" stroke-linecap="round" stroke-linejoin="round"/>
<path d="M112.5 257C112.683 255.107 112.705 252.252 112.325 249M105.5 231.5C109.808 236.569 111.668 243.377 112.325 249M112.325 249C108.383 249.833 99.4997 249.5 95.4997 241.5M114 234C123.717 217.966 106.523 188.713 90.4029 211.388C89.4429 212.738 88.986 214.377 88.5934 215.986C87.8372 219.087 85.945 223.465 81.9997 226.5C75.4997 231.5 76.0379 248.5 93.9997 247.5M98.9998 241.5C100.666 241.667 104.3 241.4 105.5 239" stroke="#586068" stroke-width="2" stroke-linecap="round" stroke-linejoin="round"/>
<path d="M245.032 236.232C243.887 239.221 240.622 242.109 235.431 245.094C230.241 248.078 223.347 251.04 215.315 254.259C212.391 255.431 209.319 256.636 206.13 257.886C191.877 263.476 175.293 269.98 159.128 278.565C143.14 282.966 128.411 280.985 118.318 276.826C113.252 274.738 109.415 272.126 107.166 269.56C104.889 266.962 104.432 264.681 105.374 262.986C107.659 258.872 111.407 256.959 119.719 254.522C122.219 253.789 125.12 253.011 128.488 252.108C136.207 250.038 146.374 247.312 159.762 242.966C164.487 241.934 169.184 240.888 173.806 239.858C191.635 235.886 208.338 232.165 221.203 230.486C229.33 229.425 235.779 229.202 239.973 230.175C242.065 230.66 243.459 231.412 244.256 232.371C245.007 233.274 245.34 234.497 245.032 236.232Z" fill="#586068" stroke="#586068" stroke-width="2"/>
<path d="M352.5 269.5C319 261 313.667 239.333 314 226.5C406 231.3 477.667 261.833 502 276.5C481.5 295 469.055 275.223 458.5 280.5C446.5 286.5 436.5 281 426.5 276.5C389.5 259.5 378.557 276.111 352.5 269.5Z" fill="#586068"/>
<path d="M306 245.5C309.333 256.833 321.4 280.4 343 284M298.5 251C300 254.833 304.1 263.9 308.5 269.5M290 255C290.167 257.5 291.3 262.7 294.5 263.5M417 284C423.333 288.833 441.4 297.3 463 292.5M417 295.5C420.5 298.667 429.4 304.6 437 303M509 287.5C506.5 290.167 499.5 295.5 491.5 295.5M515.5 295.5C510 301.667 494.3 312.9 475.5 308.5M314 226.5C313.667 239.333 319 261 352.5 269.5C378.557 276.111 389.5 259.5 426.5 276.5C436.5 281 446.5 286.5 458.5 280.5C469.055 275.223 481.5 295 502 276.5C477.667 261.833 406 231.3 314 226.5Z" stroke="#586068" stroke-width="2" stroke-linecap="round" stroke-linejoin="round"/>
<path d="M98 272.5C100.833 276.167 108.7 283.7 117.5 284.5M103 284.5C105.167 287.333 111.1 292.8 117.5 292M184 275.5C190.5 270.667 206.5 260.8 218.5 260C230.5 259.2 241.5 249 245.5 244M184 284.5C188.833 284.139 199.7 281.233 204.5 272.5" stroke="#586068" stroke-width="2" stroke-linecap="round" stroke-linejoin="round"/>
<path d="M103.5 44.5001C98.9346 49.0657 98.3954 60.3898 99.256 67.3501C99.3746 68.3093 100.205 69.0001 101.172 69.0001C102.394 69.0001 103.326 70.0934 103.254 71.3138C103.065 74.5374 103.469 78.5 106 78.5C108.949 78.5 109.577 69.7232 109.527 64.3028C109.519 63.5093 109.959 62.7726 110.698 62.4842C115.13 60.7553 124.005 59.0026 132 63C143 68.5 160 56.5 151.5 46.5C145.161 39.0421 135.142 41.4337 130.033 43.9526C129.384 44.2725 128.615 44.2652 127.986 43.908C116.065 37.1385 108.363 39.6365 103.5 44.5001Z" fill="#586068" stroke="#586068" stroke-width="2" stroke-linejoin="round"/>
<path d="M108.5 103C95.5001 116.333 73.2001 145.3 88.0001 154.5C89.3962 155.368 90.904 156.07 92.5001 156.626M142 135L142.803 149.79C132.085 155.073 107.825 161.964 92.5001 156.626M142 135C134.498 134.491 120.517 134.41 112 136.886M142 135C146 132.705 161.289 128.317 158.5 132.5C157.985 133.273 156.94 133.912 155.5 134.42M106 140C107.233 138.672 109.353 137.655 112 136.886M112 136.886C116.5 133.5 120 130.5 120 121.5M150.5 135.5C152.44 135.258 154.145 134.897 155.5 134.42M155.5 134.42C159.5 135 159.5 138.5 155.5 139.464M150.5 139C153 139 158.5 139.464 161 142.014M92.5001 156.626L92.3698 160.503C92.1976 165.625 97.4056 169.189 102.117 167.175L157.5 143.5M150.5 142.655C151.735 142.437 155.782 141.9 157.5 143.5M157.5 143.5L173.829 136.886M129 104.5C133.333 111.833 143.4 127 165 125M105 106.73L114 119L121 108H123M173.829 136.886L197 127.5L194.5 86L168 94L173.829 136.886Z" stroke="#586068" stroke-width="2" stroke-linecap="round" stroke-linejoin="round"/>
<path d="M99.4998 68.5C97.4998 72.1667 95.5998 80.2 104 83C104.5 88.5 108.3 100 119.5 102C133.5 104.5 138.5 74 136.5 64.5M123.5 71.5C123.776 74.5 127.135 79.0587 129.5 83C131 85.5 127 88 123.5 85.5M119.5 90.5C119.333 91.3333 119.9 92.9 123.5 92.5M121.5 68.5C120 67.6667 116.2 66.7 113 69.5M125.5 68.5C126.706 67.5 129.894 66.1 133 68.5" stroke="#586068" stroke-width="2"/>
<ellipse cx="118.469" cy="77.1868" rx="1" ry="2" transform="rotate(14.5128 118.469 77.1868)" fill="#586068"/>
<ellipse cx="118.469" cy="77.1868" rx="1" ry="2" transform="rotate(14.5128 118.469 77.1868)" fill="#586068"/>
<ellipse cx="118.469" cy="77.1868" rx="1" ry="2" transform="rotate(14.5128 118.469 77.1868)" fill="#586068"/>
<ellipse cx="129.469" cy="76.1868" rx="1" ry="2" transform="rotate(14.5128 129.469 76.1868)" fill="#586068"/>
<ellipse cx="129.469" cy="76.1868" rx="1" ry="2" transform="rotate(14.5128 129.469 76.1868)" fill="#586068"/>
<ellipse cx="129.469" cy="76.1868" rx="1" ry="2" transform="rotate(14.5128 129.469 76.1868)" fill="#586068"/>
<path d="M124.184 107.657C117.204 109.164 113.045 102.688 111.839 99.2612C119.389 103.148 123.087 103.012 123.973 101.938C126.965 103.563 126.48 107.161 124.184 107.657Z" stroke="#586068" stroke-width="2"/>
<path d="M123 108L129 120.5L132.5 109.5" stroke="#586068" stroke-width="2" stroke-linecap="round" stroke-linejoin="round"/>
<path d="M124.5 185.5C110.5 185.9 102.333 174.333 100 168.5L165 140.5C180 135.5 204.167 161 212 171L190.5 190.5L178.5 177.5L192.5 212.5L173.5 222.5L160 179.5L135 168.5L124.5 185.5Z" fill="#586068" stroke="#586068" stroke-width="2" stroke-linecap="round" stroke-linejoin="round"/>
<path d="M202.5 185C207.167 190.167 219.4 196 231 178C237.971 167.183 223.03 172.617 218.551 175.259C217.812 175.695 217.133 176.238 216.341 176.573C213.973 177.574 210.027 178.354 207 176M179 224C180.333 228.833 187.8 236.3 207 227.5C220 221.542 212.5 216.5 198.5 219.5C195.167 220.333 187.8 220.9 185 216.5" stroke="#586068" stroke-width="2" stroke-linecap="round" stroke-linejoin="round"/>
<path d="M501.927 257.91L496.908 270.266C496.436 271.426 495.04 271.881 493.968 271.231C463.876 252.996 400.974 237.853 371 231.5L378.503 212.273C378.803 211.505 379.542 211 380.366 211H383.491C384.384 211 385.169 210.408 385.414 209.549L389.586 194.951C389.831 194.092 390.616 193.5 391.509 193.5H398.008C398.893 193.5 399.673 192.918 399.925 192.07L404.699 176.011C404.887 175.378 405.373 174.875 406.01 174.7C416.923 171.696 437.541 173.337 448.241 174.756C449.248 174.89 450.196 174.258 450.456 173.276L460.943 133.608C461.242 132.474 462.449 131.84 463.552 132.237L479.344 137.905C480.291 138.245 480.838 139.236 480.621 140.219L474.481 168.053C474.106 169.753 475.932 171.088 477.438 170.213L485.996 165.244C487.329 164.47 489 165.432 489 166.974V178.522C489 179.139 489.285 179.722 489.772 180.101L492.472 182.2C493.097 182.686 493.376 183.496 493.184 184.264L489.469 199.123C489.208 200.17 489.823 201.235 490.86 201.531L494.119 202.463C495.165 202.761 495.78 203.841 495.504 204.892L490.798 222.863C490.614 223.565 490.825 224.311 491.349 224.813L501.52 234.561C502.112 235.128 502.298 235.998 501.989 236.758L496.573 250.09C496.234 250.923 496.494 251.88 497.206 252.428L501.294 255.572C502.006 256.12 502.266 257.077 501.927 257.91Z" stroke="#586068" stroke-width="2" stroke-linecap="round" stroke-linejoin="round"/>
<path d="M434 188.5L431 199M440 196L437 207M464.5 222.5L462 234M479 182L476 192.5M467 142.5L464.5 152" stroke="#586068" stroke-width="2" stroke-linecap="round" stroke-linejoin="round"/>
<path d="M403 204L400.5 213.5" stroke="#586068" stroke-width="2" stroke-linecap="round" stroke-linejoin="round"/>
<path d="M471.5 124L469 133.5" stroke="#586068" stroke-width="2" stroke-linecap="round" stroke-linejoin="round"/>
<path d="M440 72.0002C437.879 69.8788 438.5 61.5 436.5 58.5002C421 74 395.8 62.8 397 50C398.5 34 411.5 44.0002 412 42.0003C412.5 40.0004 419.5 38.0003 423 42.0003C425.8 45.2003 431.5 44.6669 434 44.0002C449 41.0002 453 63.5002 449 64.0002C445.8 64.4002 444.667 68.5002 444.5 70.5002C444 71.8335 441 73 440 72.0002Z" fill="#586068" stroke="#586068" stroke-width="2" stroke-linecap="round" stroke-linejoin="round"/>
<path d="M429.219 101.5C433.174 102.253 436.719 100.663 439.5 98.5C431.5 108.5 428.646 104.833 429.219 101.5Z" fill="#586068"/>
<path d="M420 123.5C418.5 121.833 412.5 118 412.5 118C409.338 118 419.5 104.007 425.5 104.5C424.278 106.578 422.105 111.31 420.875 117L430.5 110L437.5 118.5L444.5 107.792C449.121 116.378 455.135 131.09 457 148.5L450 175C440.8 173 423 172.833 415.5 173C420.7 152.6 432.167 128.333 437.5 118.5L430.5 110L420.875 117C420.429 119.067 420.107 121.261 420 123.5Z" fill="#586068"/>
<path d="M412.998 64.9435C412.967 64.3921 412.495 63.9704 411.943 64.0016C411.392 64.0328 410.97 64.5051 411.002 65.0565L412.998 64.9435ZM421.5 97L422.207 96.2929L422.207 96.2929L421.5 97ZM439.5 98.5L438.886 97.7106L438.886 97.7106L439.5 98.5ZM448.944 83.8285C449.126 83.3069 448.85 82.7369 448.328 82.5555C447.807 82.3741 447.237 82.6498 447.055 83.1715L448.944 83.8285ZM447.586 77.5896C447.083 77.8182 446.861 78.411 447.09 78.9138C447.318 79.4166 447.911 79.6389 448.414 79.4104L447.586 77.5896ZM448.187 62.0177C447.645 61.9143 447.121 62.2704 447.018 62.8129C446.914 63.3554 447.27 63.879 447.813 63.9823L448.187 62.0177ZM449 70.5C449 69.9477 448.552 69.5 448 69.5C447.448 69.5 447 69.9477 447 70.5H449ZM444.875 75.7191C444.444 76.0641 444.374 76.6934 444.719 77.1247C445.064 77.556 445.693 77.6259 446.125 77.2809L444.875 75.7191ZM425.909 72.4158C426.139 71.9135 425.918 71.3201 425.416 71.0905C424.913 70.8609 424.32 71.082 424.09 71.5842L425.909 72.4158ZM426.801 87.4536C427.328 87.2873 427.62 86.7255 427.454 86.1989C427.287 85.6722 426.725 85.3801 426.199 85.5464L426.801 87.4536ZM429.219 101.5L429.406 100.518L429.406 100.518L429.219 101.5ZM420 123.5L419.257 124.169C419.528 124.47 419.954 124.578 420.336 124.442C420.718 124.306 420.98 123.952 420.999 123.548L420 123.5ZM412.5 118L413.038 117.157L412.792 117H412.5V118ZM425.5 104.5L426.362 105.007C426.536 104.71 426.546 104.345 426.388 104.04C426.229 103.734 425.925 103.532 425.582 103.503L425.5 104.5ZM430.5 110L431.272 109.364C430.936 108.956 430.34 108.88 429.912 109.191L430.5 110ZM441.818 101.425C441.501 100.973 440.877 100.864 440.425 101.182C439.973 101.499 439.864 102.123 440.182 102.575L441.818 101.425ZM457 148.5L457.967 148.755C457.998 148.637 458.007 148.515 457.994 148.393L457 148.5ZM415.5 173L414.531 172.753C414.454 173.056 414.523 173.378 414.717 173.622C414.912 173.867 415.21 174.007 415.522 174L415.5 173ZM450 175L449.788 175.977C450.31 176.091 450.83 175.773 450.967 175.255L450 175ZM411.002 65.0565C411.256 69.5433 412.242 76.2088 413.87 82.4644C414.684 85.5942 415.665 88.6432 416.806 91.2771C417.94 93.8951 419.262 96.1766 420.793 97.7071L422.207 96.2929C420.938 95.0234 419.735 93.0091 418.641 90.4823C417.554 87.9714 416.603 85.0266 415.805 81.9606C414.208 75.8246 413.244 69.29 412.998 64.9435L411.002 65.0565ZM440.114 99.2894C442.102 97.7428 443.977 94.7726 445.488 91.8463C447.022 88.877 448.265 85.7825 448.944 83.8285L447.055 83.1715C446.402 85.0509 445.195 88.0563 443.711 90.9287C442.206 93.8441 440.498 96.4572 438.886 97.7106L440.114 99.2894ZM448.414 79.4104C449.564 78.8874 450.803 77.6702 451.834 76.2414C452.885 74.7848 453.819 72.9725 454.283 71.1175C454.744 69.2713 454.766 67.2677 453.822 65.5496C452.86 63.7996 451.013 62.556 448.187 62.0177L447.813 63.9823C450.237 64.444 451.473 65.4296 452.069 66.5129C452.682 67.6282 452.735 69.062 452.342 70.6325C451.952 72.1942 451.146 73.7777 450.212 75.0711C449.259 76.3923 448.269 77.2793 447.586 77.5896L448.414 79.4104ZM447 70.5C447 71.0665 446.89 72.0599 446.551 73.0859C446.209 74.1168 445.669 75.0842 444.875 75.7191L446.125 77.2809C447.331 76.3158 448.04 74.9499 448.449 73.7141C448.86 72.4734 449 71.2669 449 70.5H447ZM424.09 71.5842C422.744 74.5295 421.158 78.8854 420.903 82.2621C420.778 83.9063 420.943 85.6167 421.938 86.7326C423.032 87.9606 424.751 88.101 426.801 87.4536L426.199 85.5464C424.449 86.099 423.747 85.7561 423.431 85.4018C423.015 84.9353 422.78 83.9645 422.897 82.4129C423.125 79.398 424.589 75.3038 425.909 72.4158L424.09 71.5842ZM420.793 97.7071C423.578 100.492 426.352 101.972 429.032 102.482L429.406 100.518C427.197 100.097 424.77 98.8555 422.207 96.2929L420.793 97.7071ZM429.032 102.482C433.379 103.31 437.212 101.546 440.114 99.2894L438.886 97.7106C436.226 99.7798 432.969 101.196 429.406 100.518L429.032 102.482ZM428.233 101.331C428.065 102.309 428.132 103.383 428.555 104.273C429.001 105.21 429.852 105.936 431.094 105.999C432.248 106.057 433.566 105.531 435.028 104.464C436.509 103.382 438.25 101.663 440.281 99.1247L438.719 97.8753C436.75 100.337 435.134 101.909 433.848 102.849C432.543 103.802 431.683 104.026 431.195 104.001C430.795 103.981 430.54 103.79 430.362 103.414C430.161 102.992 430.086 102.358 430.204 101.669L428.233 101.331ZM420.743 122.831C420.301 122.34 419.58 121.74 418.804 121.144C418.012 120.536 417.107 119.891 416.256 119.302C415.404 118.713 414.601 118.178 414.01 117.79C413.715 117.595 413.473 117.438 413.304 117.328C413.22 117.274 413.154 117.231 413.108 117.202C413.086 117.188 413.069 117.177 413.057 117.169C413.051 117.165 413.046 117.162 413.043 117.16C413.042 117.159 413.041 117.159 413.04 117.158C413.039 117.158 413.039 117.158 413.039 117.158C413.039 117.157 413.039 117.157 413.038 117.157C413.038 117.157 413.038 117.157 412.5 118C411.962 118.843 411.962 118.843 411.962 118.843C411.962 118.843 411.962 118.843 411.962 118.843C411.962 118.843 411.962 118.843 411.962 118.843C411.963 118.844 411.964 118.844 411.965 118.845C411.968 118.847 411.972 118.849 411.978 118.853C411.989 118.86 412.005 118.871 412.027 118.885C412.07 118.913 412.135 118.954 412.217 119.007C412.383 119.114 412.621 119.269 412.911 119.46C413.493 119.843 414.283 120.37 415.119 120.948C415.956 121.526 416.831 122.151 417.586 122.731C418.358 123.323 418.949 123.827 419.257 124.169L420.743 122.831ZM412.5 117C412.486 117 412.637 117.001 412.782 117.152C412.914 117.29 412.906 117.414 412.904 117.366C412.899 117.232 412.972 116.868 413.261 116.24C413.812 115.047 414.913 113.39 416.329 111.709C417.739 110.036 419.413 108.397 421.072 107.216C422.772 106.007 424.284 105.404 425.418 105.497L425.582 103.503C423.716 103.35 421.707 104.311 419.913 105.587C418.079 106.891 416.284 108.658 414.799 110.421C413.319 112.177 412.098 113.988 411.445 115.402C411.133 116.079 410.884 116.805 410.905 117.434C410.917 117.767 411.009 118.191 411.336 118.534C411.676 118.89 412.119 119 412.5 119V117ZM424.638 103.993C423.364 106.159 421.151 110.991 419.898 116.789L421.853 117.211C423.059 111.63 425.191 106.997 426.362 105.007L424.638 103.993ZM419.898 116.789C419.442 118.901 419.111 121.15 419.001 123.452L420.999 123.548C421.102 121.372 421.416 119.234 421.853 117.211L419.898 116.789ZM421.464 117.809L431.088 110.809L429.912 109.191L420.287 116.191L421.464 117.809ZM429.728 110.636L436.728 119.136L438.272 117.864L431.272 109.364L429.728 110.636ZM438.337 119.047L445.337 108.339L443.663 107.245L436.663 117.953L438.337 119.047ZM440.182 102.575C441.119 103.909 442.309 105.831 443.619 108.266L445.381 107.318C444.042 104.831 442.811 102.838 441.818 101.425L440.182 102.575ZM443.619 108.266C448.194 116.766 454.157 131.353 456.006 148.607L457.994 148.393C456.112 130.827 450.048 115.99 445.381 107.318L443.619 108.266ZM436.621 118.023C431.269 127.892 419.76 152.24 414.531 172.753L416.469 173.247C421.64 152.96 433.065 128.775 438.379 118.977L436.621 118.023ZM415.522 174C423.033 173.833 440.72 174.006 449.788 175.977L450.212 174.023C440.88 171.994 422.967 171.834 415.478 172L415.522 174ZM450.967 175.255L457.967 148.755L456.033 148.245L449.033 174.745L450.967 175.255Z" fill="#586068"/>
<path d="M430 70.0001C430.833 69.3335 433.1 68.4001 435.5 70.0001M421 71.5C419.667 70.5 416.3 69.1 413.5 71.5M427 94.5C428.167 94.6667 431 94.4 433 92" stroke="#586068" stroke-width="2" stroke-linecap="round" stroke-linejoin="round"/>
<circle cx="430.5" cy="78.5" r="1.5" fill="#586068"/>
<circle cx="420.5" cy="78.5" r="1.5" fill="#586068"/>
<path d="M416 124.5C418 125.3 424.833 133.5 428 137.5C427.166 142.5 424.8 152.3 422 151.5C419.2 150.7 418.833 149.5 419 149L420.5 147C419 145.5 416.5 147.5 413.5 144C411.1 141.2 412.5 141.167 413.5 141.5L420.5 143.5C417 139 410.5 137.5 411.5 135C411.5 134.25 416.833 136.5 420.5 137.5C417 133 410 132 411.5 130C412.7 128.4 418 131.667 420.5 133.5C419.5 131.5 417.5 130 413.5 126.5C408.953 122.522 413.5 123.5 416 124.5Z" stroke="#586068" stroke-width="2" stroke-linecap="round" stroke-linejoin="round"/>
<path d="M356.5 191.5C369.5 165.5 381.5 150 388 145.5C388.941 144.849 390.319 144.648 392 144.793M392 144.793C399.498 145.44 413.012 152.962 420.5 158L415.5 173C397.5 171 381.5 195 375.5 208L365.75 202.375M392 144.793C392 143.862 391.6 141.8 390 141C389.335 140.668 387.731 139.783 385.5 139.007M356 196.75L336.5 185.5C343.167 173 358.6 146.6 367 141C369.02 139.653 371.04 138.788 373 138.275M356 196.75C356.167 198.5 351.7 203.2 332.5 208C326.5 209.5 334 213 339.5 212M356 196.75L365.75 202.375M365.75 202.375C364.833 204.25 362 208 356 209.5C348.559 211.36 329.5 218.5 341 220C349.833 220.541 368.3 219.7 371.5 212M373 138.275C372.5 133.183 374.5 124 383.5 120C389.623 117.279 385.5 123.333 383.5 124.5C381.5 125.667 378.4 128.3 382 129.5C385.6 130.7 384.5 133 383.5 134C384.833 135.004 387.1 137.412 385.5 139.007M373 138.275C377.84 137.009 382.311 137.897 385.5 139.007" stroke="#586068" stroke-width="2" stroke-linecap="round" stroke-linejoin="round"/>
<path d="M379.5 122L377.5 104.5L406.5 110L410.5 151.5" stroke="#586068" stroke-width="2" stroke-linecap="round" stroke-linejoin="round"/>
<path d="M-1.6759 317.511C83.0142 257.692 184.221 225.71 287.906 226.002C391.592 226.294 492.617 258.845 576.969 319.14" stroke="#586068" stroke-width="2"/>
<path d="M200.5 85.5H269.5C245.516 85.5 236.064 109.616 251.354 120.65C261.363 127.873 274.956 121.655 281.825 111.399C295.339 91.2219 307.392 62.9182 331.789 58.8465C332.244 58.7706 332.425 59.4152 332.014 59.6229C308.965 71.2602 301.34 110.246 293 131.5C303.601 104.483 299.398 80.4024 287.477 81.9161C285.068 82.2221 282.863 83.5768 281.264 85.4049C270.651 97.5413 285.732 124.119 309.5 119C316.14 117.57 318.077 108.873 312.187 105.163C311.793 104.915 311.969 104 312.435 104H372" stroke="#1D45FE" stroke-width="2" stroke-linecap="round" stroke-linejoin="round"/>
</g>
<defs>
<clipPath id="clip0_738_2164">
<rect width="573" height="320" fill="white"/>
</clipPath>
</defs>
</svg>
