<svg width="309" height="312" viewBox="0 0 309 312" fill="none" xmlns="http://www.w3.org/2000/svg">
<circle cx="144.809" cy="151.998" r="116.54" stroke="#586068" stroke-width="4"/>
<path d="M59.7385 133.868C69.2217 131.637 86.9331 121.782 94.6033 117.133C100.182 114.344 114.407 113.368 126.679 131.777C138.185 149.036 129.342 157.428 122.446 159.941C121.579 160.257 120.638 160.22 119.745 159.989C108.613 157.11 90.4314 157.562 97.3925 180.587C102.97 199.036 94.193 208.081 88.8912 215.081C86.8409 217.788 82.3815 219.582 79.206 218.379C71.6732 215.525 61.2907 210.753 59.7385 195.231C56.8937 166.783 44.3979 161.76 44.3979 150.604C44.3979 139.447 47.8844 136.658 59.7385 133.868Z" fill="#586068" stroke="#586068" stroke-width="4" stroke-linecap="round" stroke-linejoin="round"/>
<path d="M208.263 76.6902C211.764 70.6884 220.01 70.2172 224.861 70.854C225.866 70.9858 226.775 71.5108 227.465 72.2529C255.561 102.5 261.163 136.544 260.372 154.21C260.24 157.155 257.351 159.211 254.405 159.101C251.088 158.978 246.399 159.062 240.338 159.668C226.392 161.063 218.025 153.393 218.025 148.512C218.025 143.631 219.419 142.933 226.392 138.052C233.365 133.171 226.392 120.62 215.933 127.593C208.393 132.619 205.571 128.587 204.917 125.189C204.78 124.482 204.924 123.763 205.114 123.068C206.522 117.929 205.234 109.11 190.133 108.068C169.911 106.674 169.911 89.9387 170.609 85.7549C171.306 81.5711 176.884 76.6902 185.949 81.5711C195.014 86.4521 203.381 85.0577 208.263 76.6902Z" fill="#586068" stroke="#586068" stroke-width="4" stroke-linecap="round" stroke-linejoin="round"/>
<path d="M162.939 56.4687C154.841 58.0882 144.349 55.9202 139.678 54.5147C139.379 54.4249 139.062 54.3558 138.752 54.3227C118.323 52.1404 119.073 69.0254 127.376 69.7174C135.744 70.4147 130.863 76.6903 144.809 85.0579C155.7 91.5924 156.402 82.7115 155.349 77.0955C155.298 76.8243 155.216 76.562 155.124 76.302C153.606 72.0359 153.2 64.6078 162.939 66.2309C175.49 68.3228 181.068 62.7444 180.371 59.9552C179.674 57.166 173.398 54.3768 162.939 56.4687Z" fill="#586068"/>
<path d="M155.268 202.901C165.151 204.383 173.575 191.75 177.631 183.029C178.501 181.16 180.326 179.632 182.387 179.698C185.839 179.808 190.775 181.582 195.711 192.441C201.29 204.714 193.387 213.36 188.738 216.15C185.949 217.544 180.371 224.936 180.371 243.344C180.371 261.753 168.749 266.82 162.939 267.052C160.382 267.052 154.85 263.426 153.176 248.923C151.084 230.793 144.809 242.647 137.836 225.912C130.863 209.177 141.322 200.809 155.268 202.901Z" fill="#586068"/>
<path d="M162.939 56.4687C154.841 58.0882 144.349 55.9202 139.678 54.5147C139.379 54.4249 139.062 54.3558 138.752 54.3227C118.323 52.1404 119.073 69.0254 127.376 69.7174C135.744 70.4147 130.863 76.6903 144.809 85.0579C155.7 91.5924 156.402 82.7115 155.349 77.0955C155.298 76.8243 155.216 76.562 155.124 76.302C153.606 72.0359 153.2 64.6078 162.939 66.2309C175.49 68.3228 181.068 62.7444 180.371 59.9552C179.674 57.166 173.398 54.3768 162.939 56.4687Z" stroke="#586068" stroke-width="4" stroke-linecap="round" stroke-linejoin="round"/>
<path d="M155.268 202.901C165.151 204.383 173.575 191.75 177.631 183.029C178.501 181.16 180.326 179.632 182.387 179.698C185.839 179.808 190.775 181.582 195.711 192.441C201.29 204.714 193.387 213.36 188.738 216.15C185.949 217.544 180.371 224.936 180.371 243.344C180.371 261.753 168.749 266.82 162.939 267.052C160.382 267.052 154.85 263.426 153.176 248.923C151.084 230.793 144.809 242.647 137.836 225.912C130.863 209.177 141.322 200.809 155.268 202.901Z" stroke="#586068" stroke-width="4" stroke-linecap="round" stroke-linejoin="round"/>
<path d="M39.3916 207.386C39.8531 206.383 39.4137 205.195 38.4102 204.733C37.4067 204.272 36.219 204.711 35.7575 205.715L39.3916 207.386ZM42.8594 226.516L42.2633 228.425L42.2633 228.425L42.8594 226.516ZM239.865 94.7422L241.726 95.4756L241.726 95.4756L239.865 94.7422ZM212.093 48.4091C211.019 48.6686 210.359 49.7492 210.618 50.8229C210.878 51.8966 211.959 52.5567 213.032 52.2973L212.093 48.4091ZM35.7575 205.715C34.4589 208.538 32.7729 213.022 33.0273 217.394C33.1571 219.626 33.7969 221.903 35.3143 223.894C36.8357 225.891 39.1193 227.443 42.2633 228.425L43.4555 224.606C40.9442 223.822 39.4224 222.686 38.4959 221.47C37.5656 220.249 37.1152 218.79 37.0205 217.162C36.8257 213.814 38.1525 210.08 39.3916 207.386L35.7575 205.715ZM42.2633 228.425C43.4053 228.781 44.9831 228.968 46.827 229.035C48.7088 229.104 51.0029 229.052 53.6482 228.869C58.9411 228.503 65.7236 227.605 73.5727 226.045C89.2721 222.924 109.323 217.134 130.364 207.558C172.434 188.413 218.636 154.05 241.726 95.4756L238.005 94.0087C215.417 151.311 170.185 185.042 128.707 203.918C107.973 213.353 88.2204 219.055 72.7928 222.122C65.0784 223.655 58.4664 224.526 53.3722 224.878C50.8239 225.055 48.6763 225.1 46.9729 225.037C45.2316 224.974 44.0807 224.802 43.4555 224.606L42.2633 228.425ZM241.726 95.4756C244.755 87.7917 246.742 80.5342 247.443 74.0773C248.143 67.6391 247.58 61.8439 245.339 57.2119C243.06 52.5001 239.124 49.1623 233.492 47.6087C227.943 46.0777 220.835 46.297 212.093 48.4091L213.032 52.2973C221.419 50.2708 227.781 50.1824 232.429 51.4647C236.994 52.7243 239.981 55.3205 241.739 58.9536C243.534 62.6664 244.12 67.6269 243.467 73.6453C242.815 79.6448 240.947 86.5446 238.005 94.0087L241.726 95.4756Z" fill="#1D45FE"/>
<path d="M188.487 167.795L171.458 170.961L182.715 184.125L188.487 167.795ZM177.976 178.756L179.201 177.709L177.251 175.428L176.027 176.476L177.976 178.756Z" fill="#1D45FE"/>
<path d="M290.879 28.3653C293.744 35.283 294.449 42.2797 293.319 47.9783C292.187 53.685 289.253 57.9719 284.937 59.7596C280.621 61.5473 275.515 60.5906 270.68 57.3552C265.852 54.1244 261.402 48.6789 258.537 41.7612C255.672 34.8435 254.968 27.8468 256.097 22.1483C257.229 16.4415 260.163 12.1546 264.479 10.3669C268.795 8.57928 273.901 9.53598 278.736 12.7714C283.565 16.0022 288.014 21.4476 290.879 28.3653Z" stroke="#1D45FE" stroke-width="2"/>
<path d="M269.001 9.31057C272.001 7.6158 272.411 7.34422 275.034 7.22387C277.665 7.10315 280.502 7.79859 283.34 9.31057C286.18 10.8229 288.931 13.1052 291.382 16.0097C293.831 18.9131 295.906 22.351 297.45 26.0727C298.993 29.7944 299.96 33.6936 300.284 37.4815C300.608 41.2708 300.28 44.8355 299.343 47.9195C298.407 51.0033 296.892 53.5091 294.945 55.291C293.004 57.0675 290.66 58.1013 288.069 58.3302" stroke="#1D45FE" stroke-width="2" stroke-linecap="round" stroke-linejoin="round"/>
<path d="M285.013 30.1755C286.889 34.705 287.344 39.2721 286.61 42.9731C285.874 46.6823 283.982 49.4037 281.259 50.5314C278.537 51.659 275.274 51.0728 272.132 48.9699C268.996 46.8716 266.088 43.3207 264.212 38.7912C262.336 34.2616 261.881 29.6945 262.615 25.9935C263.35 22.2843 265.243 19.5629 267.965 18.4353C270.688 17.3076 273.95 17.8939 277.093 19.9968C280.229 22.095 283.137 25.6459 285.013 30.1755Z" stroke="#1D45FE" stroke-width="2"/>
<path d="M264.001 10.6157L271.118 8.0745" stroke="#1D45FE" stroke-width="2" stroke-linecap="round"/>
<line x1="279.543" y1="13.3878" x2="285.127" y2="11.0746" stroke="#1D45FE" stroke-width="2" stroke-linecap="round"/>
<line x1="284.543" y1="17.3878" x2="290.127" y2="15.0746" stroke="#1D45FE" stroke-width="2" stroke-linecap="round"/>
<line x1="288.543" y1="22.3878" x2="294.127" y2="20.0746" stroke="#1D45FE" stroke-width="2" stroke-linecap="round"/>
<path d="M291.542 27.3878L297.001 25.1158" stroke="#1D45FE" stroke-width="2" stroke-linecap="round"/>
<line x1="292.808" y1="33.4659" x2="298.393" y2="31.1527" stroke="#1D45FE" stroke-width="2" stroke-linecap="round"/>
<line x1="294.09" y1="40.7652" x2="299.674" y2="38.452" stroke="#1D45FE" stroke-width="2" stroke-linecap="round"/>
<line x1="293.885" y1="48.68" x2="299.47" y2="46.3668" stroke="#1D45FE" stroke-width="2" stroke-linecap="round"/>
<path d="M284.001 60.1157L291.833 57.36" stroke="#1D45FE" stroke-width="2" stroke-linecap="round"/>
<path d="M32.2706 290.184C40.1791 294.282 48.4189 295.811 55.3226 295.015C62.2336 294.219 67.6903 291.12 70.3048 286.075C72.9192 281.029 72.3049 274.784 68.9703 268.679C65.6392 262.58 59.639 256.729 51.7305 252.631C43.822 248.533 35.5823 247.004 28.6785 247.799C21.7676 248.596 16.3108 251.695 13.6964 256.74C11.082 261.785 11.6963 268.031 15.0309 274.136C18.3619 280.235 24.3622 286.086 32.2706 290.184Z" stroke="#1D45FE" stroke-width="2"/>
<path d="M15.5013 254.116C13.5013 256.616 9.53667 264.259 9.10748 267.436C8.6783 270.612 9.21684 274.064 10.6838 277.541C12.1508 281.017 14.5093 284.429 17.5874 287.53C20.6654 290.63 24.3854 293.34 28.4763 295.462C32.5671 297.584 36.9256 299.064 41.234 299.795C45.5425 300.526 49.6923 300.489 53.3809 299.687C57.0696 298.885 60.2041 297.338 62.556 295.159C64.9079 292.98 68.3769 290.251 70.0013 287.116" stroke="#1D45FE" stroke-width="2" stroke-linecap="round" stroke-linejoin="round"/>
<path d="M34.93 283.712C40.4113 286.552 46.1104 287.605 50.8683 287.057C55.6335 286.508 59.3395 284.379 61.1067 280.969C62.8739 277.558 62.4763 273.303 60.1771 269.093C57.8814 264.89 53.735 260.841 48.2537 258C42.7723 255.16 37.0733 254.107 32.3153 254.655C27.5501 255.204 23.8442 257.333 22.077 260.744C20.3098 264.154 20.7073 268.409 23.0066 272.619C25.3023 276.822 29.4486 280.871 34.93 283.712Z" stroke="#1D45FE" stroke-width="2"/>
<path d="M15.0013 275.116L12.6515 280.384" stroke="#1D45FE" stroke-width="2" stroke-linecap="round"/>
<line x1="1" y1="-1" x2="6.71438" y2="-1" transform="matrix(-0.506498 0.862241 0.876537 0.481334 20.9487 279.993)" stroke="#1D45FE" stroke-width="2" stroke-linecap="round"/>
<line x1="1" y1="-1" x2="7.35551" y2="-1" transform="matrix(-0.502983 0.864296 0.877427 0.479711 25.9858 284.772)" stroke="#1D45FE" stroke-width="2" stroke-linecap="round"/>
<path d="M30.5012 289.616L27.3361 293.719" stroke="#1D45FE" stroke-width="2" stroke-linecap="round"/>
<path d="M37.0015 292.616L34.0015 297.116" stroke="#1D45FE" stroke-width="2" stroke-linecap="round"/>
<path d="M45.5016 295.116L42.5016 299.616" stroke="#1D45FE" stroke-width="2" stroke-linecap="round"/>
<path d="M54.8912 295.067L52.0016 299.616" stroke="#1D45FE" stroke-width="2" stroke-linecap="round"/>
</svg>
