<svg width="367" height="298" viewBox="0 0 367 298" fill="none" xmlns="http://www.w3.org/2000/svg">
<g clip-path="url(#clip0_738_2118)">
<path d="M83.6888 23.7368L225.88 28.0985C231.146 28.26 234.82 33.3789 233.289 38.4197L175.234 229.556C173.877 234.024 168.998 236.385 164.652 234.676L38.2178 184.975C34.3714 183.463 32.3099 179.269 33.4614 175.3L75.7603 29.504C76.7776 25.9977 80.0396 23.6249 83.6888 23.7368Z" stroke="#586068" stroke-width="4" stroke-linejoin="round"/>
<path d="M270 2H68.0736C63.5944 2 59.6615 4.97862 58.4478 9.2903L8 188.5M270 2L361.427 101.564C363.933 104.293 364.724 108.184 363.484 111.675L314 251M270 2L191 270.5M314 251L281.5 256.152M314 251L309.707 264.951C308.652 268.382 305.838 270.984 302.334 271.768L274.5 278M191 270.5L183.5 296.5M191 270.5L159.5 256.385M191 270.5L223.5 265.348M8 188.5L4.40035 200.499C3.01065 205.131 5.13516 210.094 9.44614 212.286L31.5 223.5M8 188.5L38.5 202.167M183.5 296.5L159.914 284.707C155.614 282.557 153.452 277.651 154.767 273.027L159.5 256.385M183.5 296.5L208.701 291.129C212.007 290.425 214.733 288.098 215.948 284.945L223.5 265.348M159.5 256.385L68.5 215.609M223.5 265.348L249 261.305M249 261.305L274.5 278M249 261.305L281.5 256.152M274.5 278L281.5 256.152M31.5 223.5L38.5 202.167M31.5 223.5L68.5 215.609M38.5 202.167L68.5 215.609M290.637 235.779L233.033 243.436C225.788 244.398 219.992 237.519 222.169 230.543L274.03 64.4191C276.281 57.2107 285.403 55.002 290.701 60.3827L338.962 109.392C341.724 112.196 342.583 116.36 341.158 120.029L298.641 229.487C297.321 232.887 294.253 235.299 290.637 235.779Z" stroke="#586068" stroke-width="4" stroke-linecap="round" stroke-linejoin="round"/>
<path d="M126.164 124.351C119.768 144.558 101.846 155.612 86.6528 150.237C71.4599 144.863 63.4401 124.631 69.8358 104.424C76.2316 84.2171 94.1539 73.1625 109.347 78.5372C124.54 83.9119 132.56 104.144 126.164 124.351Z" stroke="#1D45FE" stroke-width="4"/>
<path d="M111.429 118.822C107.476 131.309 96.3931 137.875 87.1656 134.61C77.9381 131.346 72.8248 119.05 76.777 106.563C80.7291 94.0768 91.8124 87.5109 101.04 90.7753C110.267 94.0396 115.381 106.335 111.429 118.822Z" stroke="#1D45FE" stroke-width="4"/>
<path d="M147 151.747C140.791 146.016 138.508 135.454 141.972 125.102C146.375 111.944 158.395 104.105 168.819 107.593C179.243 111.081 184.124 124.575 179.721 137.733C175.822 149.386 165.949 156.867 156.5 156.003" stroke="#586068" stroke-width="4"/>
<path d="M156.263 128.828L160.314 129.914C161.914 130.342 162.864 131.987 162.435 133.588L152.958 168.956C152.529 170.557 150.884 171.506 149.284 171.077L145.233 169.992C143.633 169.563 142.683 167.918 143.112 166.318L152.589 130.95C153.018 129.349 154.663 128.399 156.263 128.828Z" stroke="#586068" stroke-width="4"/>
<path d="M93.7606 100.32L93.7605 90.7949M83.1995 109.328L76.48 106.819M87.5196 103.311L83.1996 96.2909M93.28 123.183C93.8934 126.951 94.5693 131.027 95.1827 134.795M81.706 117.825L76 120.859M86.9608 123.183L83.8559 131.032M97.6 119.856L103.84 129.383M97.3471 101.995L102.058 93.8402M99.04 113.839L112 116.848M100.48 107.321C103.253 105.873 107.787 103.443 110.56 101.995" stroke="#1D45FE" stroke-width="4" stroke-linecap="round"/>
<path d="M98.5503 114.722C97.6025 117.779 95.8663 120.157 93.9182 121.565C91.969 122.973 89.939 123.339 88.2034 122.737C86.4677 122.136 85.0365 120.57 84.2545 118.215C83.4729 115.861 83.4056 112.858 84.3535 109.801C85.3014 106.745 87.0375 104.367 88.9856 102.959C90.9348 101.55 92.9648 101.185 94.7004 101.786C96.4361 102.388 97.8673 103.953 98.6493 106.308C99.4309 108.662 99.4982 111.666 98.5503 114.722Z" stroke="#1D45FE" stroke-width="4"/>
</g>
<defs>
<clipPath id="clip0_738_2118">
<rect width="367" height="298" fill="white"/>
</clipPath>
</defs>
</svg>
