<svg width="398" height="313" viewBox="0 0 398 313" fill="none" xmlns="http://www.w3.org/2000/svg">
<g clip-path="url(#clip0_738_2323)">
<path d="M130.19 144.08C128.53 142.74 126.8 141.47 125.03 140.28L124.95 140.22C124.86 140.16 124.77 140.1 124.68 140.04C112.04 131.58 96.85 126.64 80.5 126.64C36.6 126.64 1 162.23 1 206.14C1 250.04 36.6 285.64 80.5 285.64C102.82 285.64 122.99 276.44 137.42 261.63C151.39 247.31 160 227.73 160 206.14C160 204.93 159.97 203.72 159.92 202.52C159.91 202.29 159.9 202.07 159.89 201.84C159.85 201.15 159.8 200.46 159.75 199.77C159.37 199.48 158.99 199.17 158.62 198.86C144.66 187.25 138.51 173.31 136.19 162.77C135.46 159.47 136.85 156.65 139.28 154.72C139.64 154.43 140.03 154.16 140.45 153.91" stroke="#586068" stroke-width="2"/>
<path d="M22.4898 193.95C28.9698 192.45 41.0698 185.81 46.2998 182.68C50.1098 180.8 59.8298 180.14 68.2098 192.54C75.8498 203.83 70.3598 209.49 65.7198 211.35C64.8698 211.69 63.9398 211.64 63.0598 211.43C55.4298 209.61 43.5398 210.18 48.2098 225.4C53.1598 241.55 50.5098 252.63 40.1098 252.63C32.0098 252.63 23.9198 249.34 22.4898 235.26C20.5498 216.11 12.0098 212.72 12.0098 205.21C12.0098 197.71 14.3898 195.83 22.4898 193.95Z" stroke="#586068" stroke-width="2" stroke-linecap="round" stroke-linejoin="round"/>
<path d="M136.37 210.38C132.45 208.78 130.27 205.97 130.27 203.89C130.27 200.56 131.21 200.08 135.94 196.74C136.39 196.42 136.75 196.06 137.03 195.66" stroke="#586068" stroke-width="2" stroke-linecap="round" stroke-linejoin="round"/>
<path d="M139.28 154.72C136.85 156.65 135.46 159.47 136.19 162.77C138.51 173.31 144.66 187.25 158.62 198.86" stroke="#586068" stroke-width="2" stroke-linecap="round" stroke-linejoin="round"/>
<path d="M127.2 151.68C126.98 151.77 126.78 151.88 126.57 151.99H126.56C125.4 152.62 124.38 153.53 123.65 154.78C120.35 160.5 114.68 161.45 108.53 158.11C102.39 154.78 98.6098 158.11 98.1398 160.97C97.6698 163.84 97.6698 175.28 111.37 176.23C121.29 176.93 122.41 182.62 121.6 186.17C121.44 186.86 121.28 187.58 121.46 188.27C122.01 190.51 123.98 192.86 128.85 189.59C129.6 189.08 130.33 188.72 131.03 188.5" stroke="#586068" stroke-width="2" stroke-linecap="round" stroke-linejoin="round"/>
<path d="M92.64 141.22C87.27 142.3 80.33 140.89 77.12 139.94C76.82 139.85 76.51 139.78 76.19 139.75C62.6 138.35 63.41 148.34 68.68 150.18C75.72 152.64 71.03 154.9 80.42 160.56C87.67 164.93 88.22 159.11 87.54 155.31C87.49 155.04 87.41 154.78 87.32 154.52C86.33 151.62 86.16 146.75 92.63 147.83C101.08 149.25 104.84 145.47 104.37 143.59C103.91 141.69 99.69 139.81 92.64 141.22Z" stroke="#586068" stroke-width="2" stroke-linecap="round" stroke-linejoin="round"/>
<path d="M85.51 242.64C87.92 243.85 90.91 243.89 93.36 243.61C96.47 243.26 99.09 241.35 101.77 239.75C105.2 237.7 110.14 236.32 113.01 242.64C116.46 250.26 113.16 254 110.27 257.27L110.17 257.38C109.73 257.88 109.18 258.27 108.7 258.73C107.08 260.25 105.48 263.78 104.38 267.61C102.01 275.87 98.24 278.24 94.8 278.91C93.44 279.17 92.02 278.63 91.19 277.52C89.4 275.12 89.94 273.53 89 268.64C87.47 260.64 79.2 267.96 74.5 256.64C69.81 245.32 80.23 240 85.51 242.64Z" stroke="#586068" stroke-width="2" stroke-linecap="round" stroke-linejoin="round"/>
<path d="M206.52 72.6801C206.51 72.6701 206.51 72.6501 206.5 72.6401C206.59 72.6501 206.68 72.6601 206.76 72.6801H206.52Z" fill="#131519" stroke="#131519" stroke-width="2" stroke-linecap="round" stroke-linejoin="round"/>
<path d="M208.14 72.8203C209.23 72.9003 210.25 72.8903 211.2 72.8203C210.11 72.9603 209.07 72.9603 208.14 72.8203Z" fill="#131519" stroke="#131519" stroke-width="2" stroke-linecap="round" stroke-linejoin="round"/>
<path d="M215.49 71.8999C214.88 72.1599 214.24 72.3499 213.57 72.4699C214.25 72.3099 214.89 72.1199 215.49 71.8999Z" fill="#131519" stroke="#131519" stroke-width="2" stroke-linecap="round" stroke-linejoin="round"/>
<path d="M223.82 64.0701C223.72 63.9501 223.6 63.8201 223.48 63.7001C223.49 63.6801 223.49 63.6601 223.5 63.6401C223.61 63.7801 223.72 63.9301 223.82 64.0701Z" fill="#131519" stroke="#131519" stroke-width="2" stroke-linecap="round" stroke-linejoin="round"/>
<path d="M87.0001 229.14C81.0001 212.14 89.5201 205.22 93.8901 200.5M79.3201 221.08C76.2201 210.4 81.5101 203.14 85.1201 200.8" stroke="#1D45FE" stroke-width="2" stroke-linecap="round"/>
<path d="M216 179.14C216.35 177.19 216.74 175.25 217.06 173.26C218.57 164.06 218.76 153.82 208.38 136.14M208.38 136.14C207.65 134.36 206.86 132.53 206 130.64L208.38 136.14ZM208.38 136.14C208.62 136 208.86 135.86 209.1 135.71C211.98 133.98 215.1 131.78 218.16 129.17C233.99 115.7 248.52 91.3501 223.82 64.0701C223.72 63.9501 223.6 63.8201 223.48 63.7001C223.17 63.3501 222.84 62.9901 222.5 62.6401M222.5 62.6401C222.45 62.8701 222.39 63.1001 222.33 63.3201C222.04 64.3301 221.63 65.2301 221.14 66.0401M222.5 62.6401L222.31 63.1301L221.14 66.0401M221.14 66.0401C218.29 70.7901 212.41 72.3701 208.11 72.6401M221.14 66.0401L221.02 66.3501C220.65 67.2801 220.15 68.1301 219.53 68.8901C218.49 70.1901 217.14 71.2101 215.61 71.8501C215.57 71.8701 215.53 71.8901 215.49 71.9001C214.88 72.1601 214.24 72.3501 213.57 72.4701C213.46 72.4901 213.35 72.5101 213.24 72.5301C212.95 72.5701 212.66 72.6001 212.36 72.6201C212.15 72.6301 211.94 72.6401 211.73 72.6401H208.11M208.11 72.6401C207.86 72.6501 207.62 72.6601 207.38 72.6701C207.18 72.6801 206.99 72.6801 206.8 72.6801C206.79 72.6801 206.77 72.6801 206.76 72.6801C206.68 72.6801 206.6 72.6801 206.52 72.6801C206.16 72.6801 205.82 72.6601 205.51 72.6401M208.11 72.6401H207.27H206.5H205.51M205.51 72.6401C209.77 81.8501 210.73 96.8501 194.71 111.14M194.71 111.14C191.87 113.67 188.49 116.18 184.5 118.64L194.71 111.14ZM194.71 111.14C189.64 110.47 178.2 110.44 173 115.64M111 91.6401C106.6 70.4401 139 69.6401 147.5 72.6401C148.01 72.8201 148.53 73.0501 149.04 73.3301C160.07 79.2601 171.18 106.42 167 123.14C165.68 128.44 167.05 135.07 169.93 139.04C169.95 139.08 169.98 139.11 170 139.14" stroke="#586068" stroke-width="2" stroke-linecap="round" stroke-linejoin="round"/>
<path d="M114 110.14C112.45 108.46 109.51 107.13 106.69 108C104.3 108.73 103.5 111.61 104.71 113.8C105.78 115.7 107.77 118.06 111.5 120.14C116 122.64 117 125.14 121.5 123.64M126 125.14C131 128.14 141.1 136.84 141.5 147.64M147.5 123.64C151 125.14 156.5 124.34 158.5 121.14M174 121.14C175.21 126.56 173.86 133.25 169.93 139.04C168.6 141 166.98 142.85 165.05 144.51C165.05 144.51 165.05 144.52 165.04 144.52C161.23 147.83 156.25 150.38 150.08 151.53C148.84 151.78 147.55 151.96 146.21 152.07C144.72 152.2 143.28 152.56 141.96 153.13C141.43 153.36 140.92 153.62 140.45 153.91C140.03 154.16 139.64 154.43 139.28 154.72C136.85 156.65 135.46 159.47 136.19 162.77C138.51 173.31 144.66 187.25 158.62 198.86C158.99 199.17 159.37 199.48 159.75 199.77C160.32 200.24 160.9 200.69 161.5 201.14M130 144.14C129.46 145.24 128.93 146.5 128.43 147.88C128.42 147.89 128.42 147.9 128.42 147.91C127.98 149.08 127.57 150.34 127.2 151.68C124.3 161.95 123.42 176.57 131.03 188.5C132.51 190.81 134.3 193.02 136.46 195.08C136.66 195.27 136.85 195.46 137.03 195.66C139.55 198.34 141.05 201.95 139.5 205.28C138.7 206.98 137.67 208.74 136.37 210.38C133.96 213.43 130.62 216.07 126.16 217.18C124.86 217.5 124.03 218.89 124.54 220.13L128.5 229.64M128.5 229.64C132.35 230.53 140.56 230.71 145.7 225.41C146.36 224.74 146.96 223.99 147.5 223.14M128.5 229.64C128.41 229.75 128.31 229.87 128.21 229.97C127.12 231.17 125.57 232.05 123.85 232.68C123.84 232.68 123.83 232.69 123.82 232.69H123.81C120.22 234 115.91 234.24 113.5 234.14C109.5 233.47 100.8 231.14 98.0002 227.14C94.5002 222.14 95.0002 217.14 98.0002 214.64C98.9802 213.83 100.23 213.54 101.5 213.53M101.5 213.53C100.84 211.57 100.4 207.64 104 207.64C106.51 207.64 110.13 208.12 112.94 208.58C114.94 208.91 117.1 209.86 117.4 211.87C117.45 212.17 117.46 212.47 117.42 212.78C117.41 212.9 117.39 213.02 117.37 213.14C117.35 213.22 117.34 213.29 117.31 213.37C117.29 213.44 117.27 213.5 117.25 213.57V213.58C117.16 213.86 117.02 214.14 116.83 214.42C116.78 214.49 116.74 214.56 116.68 214.63C116.52 214.84 116.34 215.05 116.12 215.25V215.26M101.5 213.53C103.37 213.53 105.26 214.14 106.31 214.64M228.5 120.14C251.34 123.47 296.2 146.14 289 210.14M289 210.14C281.17 205.47 264.9 200.44 262.5 217.64M289 210.14C285 186.83 265.25 138.05 218.16 129.17C218.11 129.16 218.05 129.15 218 129.14M122.5 223.14C122.76 221.77 122.88 219.67 122.4 217.9C121.95 216.22 120.95 214.84 119 214.64C117.92 214.53 116.96 214.78 116.12 215.26M116.12 215.26C116.11 215.27 116.1 215.28 116.09 215.28M116.09 215.28C115.68 215.52 115.29 215.81 114.94 216.14M116.09 215.28C115.98 215.39 115.86 215.49 115.72 215.59C115.58 215.71 115.43 215.82 115.27 215.93C115.16 216 115.05 216.07 114.94 216.14M114.94 216.14C113.38 217.59 112.4 219.76 112 221.14M114.94 216.14C112.87 214.3 109 212.24 106.31 214.64M106.31 214.64C105.99 214.93 105.68 215.28 105.4 215.7C104.83 216.54 104.35 217.66 104 219.14L106.31 214.64ZM114 115.14C115.17 116.8 118.57 118.54 120.57 118.14" stroke="#586068" stroke-width="2" stroke-linecap="round" stroke-linejoin="round"/>
<path d="M145.51 99.6401C149.68 101.31 156.51 106.04 150.51 111.64" stroke="#586068" stroke-width="2" stroke-linecap="round"/>
<path d="M145.5 88.6399C146.34 86.1399 149 81.5399 153 83.1399M125 98.6399C125.8 95.8399 131 95.4699 133.5 95.6399L125 98.6399Z" stroke="#586068" stroke-width="2" stroke-linecap="round"/>
<path d="M134.761 107.917C136.002 107.312 136.222 105.211 135.253 103.226C134.284 101.241 132.492 100.123 131.251 100.728C130.011 101.334 129.791 103.434 130.76 105.42C131.729 107.405 133.52 108.523 134.761 107.917Z" fill="#586068"/>
<path d="M134.761 107.917C136.002 107.312 136.222 105.211 135.253 103.226C134.284 101.241 132.492 100.123 131.251 100.728C130.011 101.334 129.791 103.434 130.76 105.42C131.729 107.405 133.52 108.523 134.761 107.917Z" fill="#586068"/>
<path d="M134.761 107.917C136.002 107.312 136.222 105.211 135.253 103.226C134.284 101.241 132.492 100.123 131.251 100.728C130.011 101.334 129.791 103.434 130.76 105.42C131.729 107.405 133.52 108.523 134.761 107.917Z" fill="#586068"/>
<path d="M134.761 107.917C136.002 107.312 136.222 105.211 135.253 103.226C134.284 101.241 132.492 100.123 131.251 100.728C130.011 101.334 129.791 103.434 130.76 105.42C131.729 107.405 133.52 108.523 134.761 107.917Z" fill="#586068"/>
<path d="M154.76 97.9172C156.001 97.3115 156.221 95.2112 155.252 93.2261C154.283 91.241 152.491 90.1227 151.25 90.7284C150.01 91.3342 149.79 93.4345 150.759 95.4196C151.728 97.4047 153.519 98.523 154.76 97.9172Z" fill="#586068"/>
<path d="M154.76 97.9172C156.001 97.3115 156.221 95.2112 155.252 93.2261C154.283 91.241 152.491 90.1227 151.25 90.7284C150.01 91.3342 149.79 93.4345 150.759 95.4196C151.728 97.4047 153.519 98.523 154.76 97.9172Z" fill="#586068"/>
<path d="M154.76 97.9172C156.001 97.3115 156.221 95.2112 155.252 93.2261C154.283 91.241 152.491 90.1227 151.25 90.7284C150.01 91.3342 149.79 93.4345 150.759 95.4196C151.728 97.4047 153.519 98.523 154.76 97.9172Z" fill="#586068"/>
<path d="M154.76 97.9172C156.001 97.3115 156.221 95.2112 155.252 93.2261C154.283 91.241 152.491 90.1227 151.25 90.7284C150.01 91.3342 149.79 93.4345 150.759 95.4196C151.728 97.4047 153.519 98.523 154.76 97.9172Z" fill="#586068"/>
<path d="M126.51 152.14C127.19 150.39 129.23 146.23 130.1 144.46C130.33 144 130.17 143.43 129.73 143.16L124.01 139.64" stroke="#586068" stroke-width="2" stroke-linecap="round" stroke-linejoin="round"/>
<path d="M253 217.14C236.6 242.34 216.67 265.64 208 276.14C201.2 276.94 198.17 271.8 197.5 269.14C195 223.14 223.8 218.74 215 213.14C209.35 209.54 200.03 215.85 193.43 222.07C190.33 224.98 188.03 228.58 186.03 232.33C179.37 244.76 162.66 274.07 148.41 283.26C145.65 285.04 142.62 286.41 139.58 287.67C133.95 290.01 130.59 289.12 127.41 285.45C125.55 283.3 126.73 280.18 128.81 278.24C132.89 274.42 135.51 268.39 137.42 261.63C140.39 251.19 141.66 239.01 144 230.64C144.52 228.8 145.09 227.06 145.7 225.41C145.73 225.35 145.75 225.29 145.77 225.23C147.94 219.48 150.62 214.88 153.26 211.1C155.09 208.47 156.89 206.24 158.48 204.3C158.64 204.09 158.8 203.89 158.97 203.69C159.3 203.29 159.61 202.9 159.92 202.52C160.14 202.24 160.36 201.97 160.57 201.7C160.72 201.51 160.86 201.32 161 201.14C169.5 203.64 189 200.14 196.5 192.64C202.5 186.64 212.34 177.14 216.5 173.14C216.69 173.18 216.87 173.22 217.06 173.26C217.32 173.32 217.59 173.38 217.85 173.44C231.86 176.82 245.16 187.34 250 193.64C257.31 203.14 255.67 213.64 253 217.14Z" fill="#586068" stroke="#586068" stroke-width="2" stroke-linecap="round" stroke-linejoin="round"/>
<path fill-rule="evenodd" clip-rule="evenodd" d="M186.15 182.19C178.3 178.45 163.79 168.72 159.65 162.79C159.24 162.21 158.36 162.08 157.85 162.56C157.06 163.3 155.95 164.26 154.97 164.78C153.99 165.3 152.56 165.7 151.6 165.94C151.04 166.07 150.69 166.63 150.86 167.17C152.69 172.98 158.83 183.15 164.16 189.78C164.31 189.96 164.52 190.09 164.76 190.12C165.47 190.23 167.07 190.43 168.19 190.33C168.69 190.29 169.3 190.19 169.89 190.07C170.76 189.9 171 188.67 170.33 188.09C168.39 186.37 166.07 183.85 164.91 182.41C164.56 181.98 164.7 181.36 165.18 181.07L168.01 179.37C168.38 179.14 168.87 179.18 169.21 179.47C170.92 180.9 174.79 183.82 178.56 186.12C178.78 186.25 179.04 186.29 179.29 186.23C180.07 186.05 181.88 185.63 183.12 185.23C184.04 184.94 185.17 184.49 186.14 184.09C186.96 183.75 186.95 182.57 186.15 182.19ZM164.72 177.16L162.68 178.48C162.25 178.76 161.68 178.67 161.36 178.26C159.31 175.61 157.05 172.18 156.14 170.15C155.94 169.7 156.22 169.2 156.69 169.08C157.04 168.99 157.36 168.81 157.62 168.55C157.93 168.24 158.45 168.29 158.71 168.65C160.25 170.83 162.86 173.6 164.88 175.59C165.34 176.04 165.27 176.81 164.72 177.16Z" fill="#1D45FE"/>
<path d="M149 249.64C152 254.14 157.5 253.14 164.5 249.64M240.5 218.64C244.5 220.64 249.5 220.64 254.5 213.64L240.5 218.64Z" stroke="#586068" stroke-width="2" stroke-linecap="round" stroke-linejoin="round"/>
<path d="M182 60.0802C177.16 65.6802 175.6 60.1302 176 51.6402C176.36 44.2602 180.84 43.5402 183.85 44.2702C184.63 44.4502 185.42 44.7002 186.21 44.8302C205.01 47.8602 215.8 54.8902 220.6 59.7102C221.55 60.6602 222.16 61.8802 222.31 63.1302C222.32 63.1902 222.33 63.2602 222.33 63.3202C222.41 64.3002 222.22 65.2902 221.7 66.1902C221.11 67.2102 220.37 68.1102 219.53 68.8902C217.49 70.8202 214.87 72.0702 212.36 72.6202C211.98 72.7002 211.6 72.7702 211.23 72.8102C211.22 72.8202 211.21 72.8202 211.2 72.8202C210.11 72.9602 209.07 72.9602 208.14 72.8202C208.11 72.8202 208.09 72.8202 208.07 72.8102C207.83 72.7802 207.6 72.7302 207.38 72.6702C207.34 72.6602 207.31 72.6502 207.27 72.6402C206.81 72.5202 206.38 72.3502 206 72.1402C203.79 70.9102 200.06 70.2402 196.75 69.9202C193.65 69.6102 190.41 72.7602 187.35 72.2202C187.01 72.1602 186.83 72.1202 186.49 72.0602C177.79 70.7202 177.52 65.2502 178.5 62.6402L182 60.0802ZM182 60.0802C183.15 58.7602 184.48 56.8102 186 54.1402L182 60.0802ZM182 60.0802C183.04 63.0102 185.83 66.8502 190 64.2202M190 64.2202C191.22 63.4502 192.56 62.1302 194 60.0802L190 64.2202ZM190 64.2202C191.18 65.8502 194.04 67.7402 198.01 66.1602M198.01 66.1602C199.66 65.5102 201.5 64.2602 203.5 62.1402M198.01 66.1602C198.01 66.1502 198 66.1502 198 66.1402M198.01 66.1602C199.03 67.9902 202.62 70.2202 209 64.6402" stroke="#586068" stroke-width="2" stroke-linecap="round"/>
<path d="M123.18 105.16C123.75 100.88 115.72 91.8501 115.38 86.6801C146.64 90.8501 165.65 56.0301 153.09 42.4601C137.4 25.4901 131.28 48.27 128.96 46.42C126.64 44.57 116.89 48.4001 116.39 56.0301C115.99 62.1301 109.01 66.5001 105.57 67.9301C85.8102 77.6101 100.89 106.81 105.9 103.89C109.91 101.55 114.78 105.25 116.72 107.39C118.47 108.47 122.92 107.18 123.18 105.16Z" fill="#586068" stroke="#586068" stroke-width="2" stroke-linecap="round" stroke-linejoin="round"/>
<path d="M215.73 285.95L216.33 287.04C219.61 293.03 215.8 300.34 209.26 298.36C202.35 296.26 195.51 291.22 193 280.64" stroke="#586068" stroke-width="2" stroke-linecap="round"/>
<path d="M122.51 289.64C116.68 303.81 111.51 325.34 137.51 298.14" stroke="#586068" stroke-width="2" stroke-linecap="round" stroke-linejoin="round"/>
<path d="M205.5 33.1401C336.7 26.3401 356 216.64 293 296.14M155.5 14.1401C363.9 -52.6599 418 149.64 304.5 296.14M373 38.1301C390 49.6301 406.8 97.3301 390 142.13" stroke="#1D45FE" stroke-width="2" stroke-linecap="round" stroke-linejoin="round"/>
</g>
<defs>
<clipPath id="clip0_738_2323">
<rect width="397.96" height="312.19" fill="white"/>
</clipPath>
</defs>
</svg>
