<svg width="512" height="572" viewBox="0 0 512 572" fill="none" xmlns="http://www.w3.org/2000/svg">
<mask id="mask0_738_2259" style="mask-type:alpha" maskUnits="userSpaceOnUse" x="87" y="174" width="349" height="354">
<path fill-rule="evenodd" clip-rule="evenodd" d="M339.94 449.75C338.73 450.48 337.51 451.2 336.29 451.91C311.17 466.46 284.62 476.17 258.56 480.88C257.62 481.68 256.53 482.45 255.29 483.19C229.58 498.62 228.72 516.19 228.72 516.19V517.05L227.86 523.91C223.15 529.91 212 528.19 208.15 524.34C207.72 523.91 207.29 523.05 207.29 522.63C207.29 522.63 206.43 520.06 204.29 516.2C200.26 508.15 190.95 492.92 173.15 476.9C144.41 467.76 120.25 449.98 104.86 423.2C63.7199 352.06 100.15 253.48 186.72 203.34C273.28 153.62 377 170.76 418.14 241.91C442.15 283.43 439.74 330.94 416.36 373.27C403.18 401.88 387.64 440.53 381.71 455.34C381.71 455.34 381.71 455.77 381.28 456.2C379.99 459.63 379.14 461.77 379.14 461.77C378.28 473.34 364.14 475.91 359.85 472.06C359.85 472.06 358.56 468.63 354.71 463.92C351.66 459.9 346.91 454.79 339.94 449.75Z" fill="white"/>
</mask>
<g mask="url(#mask0_738_2259)">
<path d="M117.68 269.41C116.88 269.65 116.16 269.88 115.55 270.07C115.43 268.97 115.3 267.54 115.17 265.88C115.12 265.26 115.07 264.6 115.03 263.92C95.87 291.94 85 323.35 84 354.16L92.75 344.26C95.48 318.3 105.42 292.09 121.68 268.3C120.18 268.69 118.83 269.06 117.68 269.41ZM357.81 461.37C354.55 457.1 349.54 451.76 342.28 446.51L339.94 449.75L337.59 452.99C338.31 453.51 339 454.03 339.67 454.55C345.18 458.82 349.01 463.01 351.53 466.33L354.69 463.92L354.72 463.91L357.9 461.48C357.87 461.44 357.85 461.41 357.81 461.37ZM363.59 470.6C363.58 470.59 363.57 470.57 363.56 470.54C363.54 470.49 363.52 470.43 363.49 470.36C363.43 470.21 363.34 470.02 363.23 469.78C363.17 469.65 363.11 469.51 363.03 469.35C362.83 468.92 362.56 468.4 362.23 467.8C361.33 466.19 359.94 464 357.9 461.48C357.87 461.44 357.85 461.41 357.81 461.37L354.72 463.91L354.69 463.92L351.62 466.44C353.38 468.6 354.54 470.43 355.24 471.69C355.58 472.32 355.82 472.8 355.96 473.1C356.03 473.26 356.07 473.37 356.1 473.43C356.1 473.44 356.11 473.45 356.11 473.45C356.11 473.46 356.11 473.46 356.11 473.46C356.11 473.46 356.11 473.46 356.31 473.38L356.58 473.28C357.05 473.1 357.98 472.75 359.85 472.05H359.86C363.6 470.64 363.6 470.64 363.6 470.64C363.6 470.63 363.6 470.63 363.6 470.63C363.59 470.62 363.59 470.61 363.59 470.6ZM379.15 461.77L379.14 461.76L375.15 461.47C374.86 465.36 372.44 467.77 369.35 468.96C367.78 469.56 366.16 469.79 364.81 469.7C363.98 469.65 363.4 469.5 363.03 469.35C362.76 469.24 362.6 469.14 362.53 469.08L359.86 472.05H359.85L357.18 475.02C359.17 476.81 361.86 477.54 364.31 477.69C366.84 477.85 369.61 477.43 372.22 476.43C377.34 474.46 382.27 470.01 383.07 462.72C383.09 462.5 383.11 462.28 383.13 462.06L379.15 461.77ZM381.29 456.2L381.28 456.19L380.44 455.34H380.43C379.83 455.34 379.36 455.34 378.99 455.33L377.75 454.87L377.71 454.85L377.54 454.79C376.9 456.49 376.37 457.86 376 458.81C375.82 459.29 375.67 459.66 375.58 459.91C375.53 460.03 375.49 460.13 375.46 460.19C375.45 460.22 375.44 460.24 375.44 460.26C375.43 460.26 375.43 460.27 375.43 460.27C375.43 460.28 375.43 460.28 375.43 460.28C375.43 460.28 375.43 460.28 375.89 460.47L376.09 460.55C376.6 460.75 377.52 461.11 379.14 461.76L379.15 461.77C382.86 463.25 382.86 463.25 382.86 463.25V463.24C382.86 463.24 382.86 463.23 382.87 463.22C382.88 463.2 382.89 463.18 382.9 463.14C382.93 463.07 382.97 462.97 383.02 462.84C383.03 462.8 383.05 462.76 383.07 462.72C383.16 462.47 383.3 462.13 383.46 461.71C383.8 460.85 384.26 459.65 384.81 458.18C384.88 457.99 384.96 457.8 385.03 457.6L381.29 456.2ZM384.52 455.34H381.73C381.72 455.34 381.72 455.34 381.71 455.34L379.59 454.49L378.46 453.36C378.3 453.52 378.17 453.69 378.07 453.88C377.98 454.03 377.92 454.18 377.87 454.34C377.81 454.51 377.77 454.68 377.75 454.84V454.87C377.74 454.95 377.73 455.02 377.72 455.09V455.21C377.72 455.23 377.71 455.25 377.71 455.27V455.3C377.71 455.31 377.71 455.32 377.71 455.32V455.33C377.71 455.33 377.71 455.33 378.99 455.33C379.36 455.34 379.83 455.34 380.43 455.34H380.44L381.28 456.19L381.29 456.2L384.11 459.02C384.39 458.75 384.62 458.46 384.81 458.18C385.11 457.73 385.32 457.29 385.46 456.87C385.51 456.73 385.54 456.59 385.57 456.47C385.62 456.29 385.65 456.12 385.67 455.97C385.69 455.84 385.7 455.73 385.7 455.62C385.71 455.57 385.71 455.52 385.71 455.47V455.37C385.71 455.36 385.71 455.36 385.71 455.35V455.34C385.71 455.34 385.71 455.34 384.52 455.34ZM416.36 373.27L416.31 373.24L412.73 371.59C399.51 400.28 383.95 438.96 378.02 453.8C378.01 453.82 378.01 453.83 378 453.85L378.07 453.88L379.58 454.48L379.59 454.49L381.71 455.34C381.72 455.34 381.72 455.34 381.73 455.34L385.43 456.82C385.48 456.71 385.52 456.59 385.57 456.47C391.59 441.43 406.91 403.36 419.93 375.08C419.95 375.03 419.97 374.99 419.99 374.94L416.36 373.27ZM421.6 239.9L414.68 243.91C437.89 284.04 435.66 330.05 412.86 371.33L412.79 371.46L412.73 371.59L416.31 373.24L416.36 373.27L419.86 375.2C419.88 375.16 419.9 375.12 419.93 375.08C443.82 331.73 446.4 282.77 421.6 239.9ZM379.59 454.49L379.58 454.48L378.07 453.88L378 453.85C378.01 453.83 378.01 453.82 378.02 453.8L377.84 453.98L377.54 454.79L377.71 454.85L377.75 454.87L378.99 455.33C379.36 455.34 379.83 455.34 380.43 455.34L379.59 454.49ZM376.09 460.55L375.89 460.47C375.43 460.28 375.43 460.28 375.43 460.28L375.2 460.85L375.15 461.47L379.14 461.76C377.52 461.11 376.6 460.75 376.09 460.55ZM340.14 444.96L337.87 446.32L339.94 449.75L342.28 446.51L340.14 444.96ZM257.84 476.94L256.79 477.13L255.97 477.83L258.55 480.87L257.84 476.94ZM225.22 516.02L224.84 516H224.72L224.71 516.1V516.19H228.71C226.71 516.09 225.72 516.05 225.22 516.02ZM211.08 521.36C211.08 521.36 211.08 521.36 210.88 521.43L210.61 521.52C210.13 521.67 209.19 521.99 207.29 522.62H209.86L210.97 521.51C211 521.54 211.03 521.57 211.05 521.59C211.1 521.63 211.15 521.68 211.2 521.72L211.08 521.36ZM175.18 473.34L174.36 473.08L173.15 476.88L175.82 473.92L175.18 473.34ZM299.41 171.16C298.83 171.13 298.25 171.1 297.67 171.08C296.78 171.8 295.88 172.5 294.96 173.19L294.69 172.78C294.54 172.55 294.3 172.4 294.02 172.35C293.96 172.34 293.89 172.33 293.83 172.33C293.63 172.33 293.42 172.4 293.26 172.53L291.88 173.57L291.61 173.77C290.72 174.22 289.94 174.78 289.23 175.29L289.2 175.31C288.44 175.85 287.76 176.34 286.98 176.73C286.94 176.74 286.91 176.77 286.87 176.79C285.77 177.52 284.33 178.26 282.79 179.04C283.4 179.01 284.01 178.99 284.62 178.98C339.56 177.37 389.47 200.33 414.68 243.91L421.6 239.9C396.94 197.26 350.87 173.68 299.41 171.16ZM257.41 173.68C259.59 174.77 262 175.49 264.61 175.8C270.63 176.51 277.67 175.04 285.34 171C276.12 171.22 266.78 172.11 257.41 173.68ZM248.05 180.46C247.84 180.29 247.63 180.1 247.43 179.91L247.71 179.08L248.09 177.94C248.21 177.58 248.12 177.18 247.85 176.91L247.03 176.1C246.93 175.98 246.84 175.86 246.74 175.74C246.64 175.76 246.54 175.78 246.43 175.81C245.52 176.01 244.61 176.21 243.7 176.43C243.4 176.5 243.11 176.57 242.81 176.65C242.64 176.68 242.48 176.72 242.31 176.77C242.14 176.8 241.98 176.84 241.81 176.89C241.65 176.92 241.49 176.96 241.32 177.01C241.13 177.05 240.94 177.1 240.74 177.15C240.32 177.26 239.9 177.36 239.48 177.47C239.17 177.55 238.85 177.63 238.53 177.72C237.93 177.88 237.33 178.04 236.73 178.2C236.42 178.28 236.11 178.37 235.8 178.46C218.48 183.25 201.27 190.37 184.72 199.87L185.32 200.92L185.38 201.02L185.72 201.6L185.88 201.89L186.05 202.18L186.71 203.33L188.7 206.8C188.71 206.8 188.71 206.79 188.72 206.79C207.24 196.16 226.5 188.65 245.71 184.13C245.85 184.09 245.99 184.06 246.13 184.04C246.78 183.88 247.44 183.73 248.1 183.59C248.26 183.54 248.42 183.51 248.59 183.47C248.61 183.47 248.63 183.46 248.65 183.46C248.76 183.43 248.87 183.41 248.98 183.39C249 183.38 249.02 183.38 249.04 183.37C249.09 183.36 249.15 183.35 249.21 183.34C249.96 183.17 250.72 183.01 251.48 182.86C250.89 182.54 250.32 182.18 249.75 181.78L248.05 180.46ZM114 430.09C110.96 430.77 107.46 430.41 103.7 429.02C119.53 454.37 143.25 471.4 171.08 480.42C171.36 480.52 171.65 480.61 171.93 480.7L173.14 476.89L173.15 476.88L174.36 473.08C149.8 465.27 128.8 451 114 430.09ZM207.78 514.25C203.54 505.79 193.93 490.23 175.82 473.92L173.15 476.88L173.14 476.89L170.47 479.86C170.67 480.04 170.88 480.23 171.08 480.42C188.06 495.86 196.93 510.41 200.71 517.98L204.29 516.19L204.37 516.15L207.86 514.4C207.84 514.35 207.81 514.3 207.78 514.25ZM211.07 521.33C211.07 521.32 211.06 521.31 211.06 521.29C211.05 521.26 211.03 521.22 211.01 521.17C210.98 521.06 210.93 520.92 210.86 520.75C210.73 520.39 210.53 519.9 210.27 519.28C209.75 518.07 208.97 516.4 207.86 514.4C207.84 514.35 207.81 514.3 207.78 514.25L204.37 516.15L204.29 516.19L200.79 518.14C201.79 519.93 202.48 521.42 202.91 522.43C203.13 522.94 203.28 523.32 203.38 523.57C203.39 523.59 203.39 523.61 203.4 523.63C203.43 523.73 203.46 523.8 203.47 523.84C203.48 523.87 203.49 523.88 203.49 523.89C203.49 523.89 203.49 523.89 203.97 523.73C204.44 523.57 205.39 523.25 207.29 522.62C209.19 521.99 210.13 521.67 210.61 521.52L210.88 521.43C211.08 521.36 211.08 521.36 211.08 521.36V521.35C211.08 521.34 211.07 521.34 211.07 521.33ZM211.23 522.05C211.21 521.93 211.19 521.84 211.17 521.8C211.15 521.73 211.13 521.69 211.13 521.69C211.13 521.69 211.12 521.67 211.09 521.64C211.08 521.63 211.07 521.61 211.05 521.59C211.03 521.57 211 521.54 210.97 521.51L209.86 522.62H211.29C211.29 522.36 211.25 522.16 211.23 522.05ZM203.29 522.62C203.29 522.98 203.33 523.32 203.4 523.63C203.54 524.36 203.82 524.95 203.98 525.27C204.26 525.84 204.7 526.55 205.31 527.16L209.86 522.62H203.29V522.62ZM227.86 523.91L227.85 523.9L224.71 521.44C224.52 521.68 224.3 521.91 224.05 522.11C222.69 523.29 220.53 523.93 217.84 523.82C214.83 523.7 212.33 522.66 211.2 521.72C211.15 521.68 211.1 521.63 211.05 521.59C211.03 521.57 211 521.54 210.97 521.51L209.86 522.62L205.31 527.16C208.18 530.03 213.03 531.63 217.51 531.81C222.05 532 227.54 530.79 231 526.38L227.86 523.91ZM228.72 517.05H228.71L224.75 516.55L224.71 516.87L224.05 522.11L223.89 523.41L227.85 523.9L227.86 523.91L231.83 524.4L232.68 517.55L228.72 517.05ZM224.71 516.19V517.05H232.71V516.19H224.71ZM253.23 479.76C239.78 487.83 232.63 496.59 228.84 503.57C226.96 507.05 225.93 510.04 225.37 512.22C225.1 513.31 224.93 514.19 224.84 514.84C224.8 515.16 224.77 515.42 224.75 515.61C224.74 515.71 224.73 515.79 224.73 515.86C224.73 515.89 224.72 515.92 224.72 515.94V515.97C224.72 515.98 224.72 515.98 224.72 515.99C224.72 515.99 224.72 515.99 224.84 516L225.22 516.02C225.72 516.05 226.71 516.09 228.71 516.19C232.71 516.39 232.71 516.39 232.71 516.39V516.37C232.72 516.3 232.73 516.17 232.76 515.98C232.81 515.6 232.92 514.99 233.13 514.2C233.53 512.6 234.33 510.23 235.87 507.39C238.95 501.72 245.07 493.99 257.34 486.62L253.23 479.76ZM258.56 480.88L258.55 480.87L255.97 477.83C255.22 478.46 254.31 479.11 253.23 479.76L257.34 486.62C258.39 485.99 259.37 485.33 260.27 484.64C260.27 484.63 260.27 484.63 260.28 484.63C260.57 484.4 260.86 484.17 261.14 483.93L258.56 480.88ZM334.28 448.45C309.55 462.77 283.43 472.32 257.84 476.94L258.55 480.87L258.56 480.88L259.27 484.82C259.6 484.76 259.94 484.7 260.27 484.64C260.27 484.63 260.27 484.63 260.28 484.63C286.48 479.77 313.11 469.95 338.29 455.37L334.28 448.45ZM339.94 449.75L337.87 446.32C336.69 447.04 335.49 447.75 334.28 448.45L338.29 455.37C338.75 455.1 339.21 454.83 339.67 454.55C340.45 454.11 341.23 453.64 342 453.18L339.94 449.75ZM351.53 466.33L351.57 466.39L351.62 466.44L354.69 463.92L351.53 466.33ZM359.85 472.05C357.98 472.75 357.05 473.1 356.58 473.28L356.31 473.38L356.11 473.45C356.11 473.46 356.11 473.46 356.11 473.46C356.12 473.47 356.12 473.47 356.12 473.47C356.12 473.47 356.12 473.47 356.12 473.48L356.45 474.37L357.18 475.02L359.86 472.05H359.85V472.05ZM376.09 460.55L375.89 460.47C375.43 460.28 375.43 460.28 375.43 460.28L375.2 460.85L375.15 461.47L379.14 461.76C377.52 461.11 376.6 460.75 376.09 460.55ZM380.44 455.34H380.43L379.59 454.49L378.46 453.36L377.84 453.98L377.54 454.79L377.71 454.85L377.75 454.87L378.99 455.33L379.01 455.34L381.28 456.19L380.44 455.34ZM379.59 454.49L379.58 454.48L378.07 453.88L378 453.85L377.71 454.57V455.3C377.71 455.31 377.71 455.32 377.71 455.32V455.34H381.71L379.59 454.49ZM412.86 371.33L412.79 371.46L412.73 371.59L416.31 373.24L412.86 371.33ZM184.72 199.87H184.71L185.32 200.92L184.72 199.87ZM175.18 473.34L174.36 473.08L173.14 476.89L173.15 476.88L175.82 473.92L175.18 473.34ZM200.71 517.98L200.75 518.06L200.79 518.14L204.29 516.19L200.71 517.98ZM211.2 521.72L211.08 521.36C211.08 521.36 211.08 521.36 210.88 521.43L210.61 521.52C210.13 521.67 209.19 521.99 207.29 522.62H211.29V521.97L211.2 521.72ZM227.86 523.91L231 526.38L231.69 525.51L231.83 524.4L227.86 523.91ZM228.72 517.05L232.68 517.55L232.71 517.3V517.05H228.72ZM225.22 516.02L224.84 516H224.72L224.71 516.1V516.19H228.71C226.71 516.09 225.72 516.05 225.22 516.02ZM257.84 476.94L256.79 477.13L255.97 477.83L258.55 480.87L258.56 480.88L257.84 476.94ZM340.14 444.96L337.87 446.32L339.94 449.75L342.28 446.51L340.14 444.96ZM186.71 203.33L186.05 202.18L185.88 201.89L185.72 201.6L185.38 201.02L185.32 200.92L184.71 199.87C166.93 210.16 151.2 222.5 137.78 236.25C139.41 237.06 140.86 238.03 142.16 239.12C142.89 239.73 143.57 240.38 144.22 241.06C156.94 228.19 171.84 216.57 188.72 206.8V206.79L186.71 203.33Z" fill="#586068"/>
<path d="M377.412 459.729C376.938 464.905 373.563 468.086 369.713 469.567C367.753 470.32 365.7 470.618 363.906 470.506C362.204 470.401 360.836 469.936 359.977 469.253C359.931 469.145 359.87 469.004 359.791 468.832C359.6 468.414 359.307 467.815 358.892 467.068C358.408 466.196 357.757 465.123 356.908 463.902C358.622 464.508 360.166 464.923 361.787 465.068C364.385 465.298 367.096 464.828 370.986 463.535C373.688 462.899 375.802 461.355 377.412 459.729Z" stroke="#586068" stroke-width="2"/>
<path d="M208.223 518.267C207.984 517.71 207.683 517.041 207.312 516.277C213.26 518.901 218.552 518.986 222.526 518.307C224.813 517.917 226.656 517.275 227.934 516.727C228.026 516.688 228.116 516.649 228.202 516.61L227.615 521.306C225.513 523.799 222.023 524.775 218.435 524.626C214.733 524.472 211.258 523.129 209.564 521.436C209.449 521.32 209.292 521.098 209.162 520.838C209.101 520.715 209.055 520.603 209.027 520.514C209.007 520.452 209.001 520.419 209 520.412V520.266L208.949 520.112L208 520.429C208.949 520.112 208.949 520.112 208.949 520.112L208.949 520.112L208.948 520.111L208.947 520.108L208.945 520.1L208.936 520.074C208.928 520.051 208.916 520.018 208.901 519.976C208.872 519.892 208.827 519.77 208.768 519.613C208.649 519.299 208.47 518.843 208.223 518.267Z" stroke="#586068" stroke-width="2"/>
</g>
<path d="M131.7 468.5V466.7C131.8 465.5 131.9 463.6 132.1 461.2C132.1 460.8 132.2 460.5 132.2 460.1C132.48 457.659 132.782 454.849 133.5 452.5" stroke="#586068" stroke-width="4"/>
<path d="M104.7 429.3C110.607 440.211 115.366 451.706 118.9 463.6C119.7 466.7 120.3 469.1 120.6 470.8C120.9 472.5 120.9 472.2 121 472.6L122.5 473C123.929 473.213 125.383 473.179 126.8 472.9C128.148 472.748 129.428 472.229 130.5 471.4C130.904 471.059 131.223 470.628 131.431 470.142C131.64 469.656 131.732 469.128 131.7 468.6H131.9" stroke="#586068" stroke-width="4"/>
<path d="M247.8 343.3L249.1 345.7C249.3 345.2 249.4 344.7 249.6 344.1C251.144 339.611 252.282 334.992 253 330.3C254.8 319.4 254.3 307.4 246.7 300.2C237.6 291.5 229 290.7 222.8 291.9C220.143 292.455 217.582 293.398 215.2 294.7L214.6 295L214.8 295.2" stroke="#586068" stroke-width="4"/>
<path d="M237.2 299.7C244.8 307.3 247.4 319.9 247.9 331.1C248.122 335.835 248.022 340.579 247.6 345.3L246.2 343.7C243.5 339.6 239.6 334 235.3 328.1C231 322.2 226.1 315.9 221.3 310.4C217.732 306.151 213.819 302.204 209.6 298.6L210.5 297.9C212.587 296.362 214.875 295.117 217.3 294.2C220.266 293.082 223.475 292.771 226.6 293.3C229.9 294 233.5 295.8 237.2 299.7Z" stroke="#586068" stroke-width="4"/>
<path d="M155.1 267.1L153.3 266.5L152.7 265.4C150.9 262 148.4 257.6 145.4 253C143.89 250.647 142.255 248.377 140.5 246.2C138.958 244.133 137.253 242.194 135.4 240.4L135.2 240.2C131.9 236.9 128.6 234.7 125.5 234H126.8C130.916 233.92 134.993 234.811 138.7 236.6C140.29 237.365 141.77 238.341 143.1 239.5L145.2 241.4C147.933 244.422 150.101 247.911 151.6 251.7C153.147 255.798 154.221 260.059 154.8 264.4C154.933 265.4 155.033 266.3 155.1 267.1Z" stroke="#586068" stroke-width="4"/>
<path d="M153.3 266.7C145.7 264.9 136.9 265.7 129.7 267C127.1 267.5 124.7 268 122.6 268.6L118.6 269.7L116.5 270.4C116.4 269.3 116.2 267.8 116.1 266.2C116 264.6 116 264.9 116 264.2C115.679 260.075 115.612 255.933 115.8 251.8C116.1 246.6 116.9 241.7 118.4 238.3C118.977 236.888 119.907 235.649 121.1 234.7C121.633 234.328 122.235 234.065 122.87 233.928C123.505 233.791 124.161 233.781 124.8 233.9H125.5C128.6 234.6 131.9 236.8 135.2 240.1L135.4 240.3C137.253 242.093 138.958 244.033 140.5 246.1C142.255 248.277 143.891 250.547 145.4 252.9C148.4 257.5 150.9 261.9 152.7 265.3L153.3 266.4V266.7Z" stroke="#586068" stroke-width="4"/>
<path d="M119.1 428.6L117.6 429.7L122.5 429.2L131.5 428.1L140.6 426.9L143.6 426.5H144.9L147.9 425.8C151.222 424.601 154.065 422.355 156 419.4C158.7 415.5 160.4 409.8 160.4 402.3C160.4 391 156.3 378.3 149.7 366.9C143.1 355.5 134 345.8 124.1 340.2C115 334.8 107.1 334.2 101.5 336.9H101.3L100.4 337.7L97.3001 340.6L88.4001 350.4L79.9001 360.3C78.7001 361.6 77.8001 362.8 77.1001 363.5C77.1001 363.527 77.0896 363.552 77.0708 363.571" stroke="#586068" stroke-width="4"/>
<path d="M125.8 412C125.9 420.2 123.2 426.2 118.4 429C117.313 429.645 116.132 430.117 114.9 430.4C111.433 431.045 107.853 430.662 104.6 429.3C103.019 428.67 101.482 427.935 100 427.1C93 423.1 85.8 415.9 80.3 406.5C74.8 397.1 72 387.2 72 379.1C72 371 74.6 364.9 79.4 362.2C81.079 361.22 82.9607 360.638 84.9 360.5C87.6279 360.374 90.3523 360.817 92.9 361.8C94.5981 362.42 96.2378 363.19 97.8 364.1C104.8 368.1 112 375.3 117.5 384.7C123 394.1 125.8 403.9 125.8 412Z" stroke="#586068" stroke-width="4"/>
<path d="M195.4 362.6C196.923 362.6 198.412 362.149 199.678 361.302C200.944 360.456 201.931 359.254 202.514 357.847C203.097 356.44 203.249 354.892 202.952 353.398C202.655 351.904 201.922 350.532 200.845 349.455C199.768 348.379 198.396 347.645 196.902 347.348C195.409 347.051 193.861 347.204 192.454 347.786C191.047 348.369 189.844 349.356 188.998 350.622C188.152 351.889 187.7 353.377 187.7 354.9C187.7 356.942 188.511 358.901 189.955 360.345C191.399 361.789 193.358 362.6 195.4 362.6V362.6Z" fill="#586068"/>
<path d="M115.2 405.9C115.2 401.6 112.2 396.5 108.8 394.8C105.4 393.1 102.4 394.3 102.4 398.6C102.4 402.9 105.4 408 108.8 409.8C112.2 411.6 115.2 410.2 115.2 405.9Z" fill="#586068"/>
<path d="M92.5002 393C92.5002 388.8 89.5002 383.6 86.1002 381.9C82.7002 380.2 79.7002 381.5 79.7002 385.8C79.7002 390.1 82.7002 395.2 86.1002 396.9C89.5002 398.6 92.5002 397.3 92.5002 393Z" fill="#586068"/>
<path d="M119.9 301.3C122.5 302.6 123.8 306.9 122.1 310.8C120.4 314.7 117.4 316.8 114.8 315.5C112.2 314.2 110.9 309.9 112.7 306C114.5 302.1 116.9 300 119.9 301.3Z" fill="#586068"/>
<path d="M314.1 189.9C265.7 185.6 233.9 213 219.8 224.6L232.2 231.9C251.1 218.6 282.4 193.8 332.1 200.6L314.1 189.9Z" fill="#586068"/>
<path d="M220.1 131.9H220C220.514 126.127 221.654 120.427 223.4 114.9C223.594 114.51 223.91 114.194 224.3 114C224.99 113.683 225.529 113.109 225.8 112.4H225.9L228.4 105.9L231 99.5999V99.3999C231.163 99.0306 231.23 98.6263 231.195 98.2242C231.16 97.8222 231.024 97.4355 230.8 97.0999C230.751 97.0449 230.724 96.9737 230.724 96.8999C230.724 96.8261 230.751 96.7549 230.8 96.6999C233.492 90.6261 236.774 84.8316 240.6 79.3999H240.8C241.28 79.525 241.788 79.4845 242.241 79.2848C242.695 79.0852 243.068 78.7381 243.3 78.2999C245.897 74.5514 248.736 70.9771 251.8 67.5999H251.9C252.233 67.2769 252.494 66.8873 252.667 66.4565C252.839 66.0257 252.918 65.5635 252.9 65.0999C252.896 64.8908 252.939 64.6835 253.025 64.4932C253.112 64.3028 253.24 64.1342 253.4 63.9999L253.7 63.5999M221.6 133.2C221.623 133.368 221.657 133.535 221.7 133.7C221.654 134.738 221.554 135.773 221.4 136.8C221.28 137.762 221.213 138.73 221.2 139.7C221.13 141.41 221.264 143.122 221.6 144.8C221.6 145 221.7 145.2 221.7 145.4C221.695 146.114 221.407 146.797 220.9 147.3L220.6 147.6C220.41 147.775 220.265 147.994 220.178 148.238C220.09 148.482 220.064 148.743 220.1 149C220.563 152.685 221.435 156.308 222.7 159.8C221.88 157.096 221.344 154.315 221.1 151.5C221.094 151.321 221.136 151.145 221.221 150.988C221.306 150.831 221.432 150.7 221.585 150.608C221.738 150.516 221.913 150.467 222.091 150.466C222.27 150.464 222.445 150.511 222.6 150.6L236.4 158.6C236.7 163.1 237.1 166.2 238.6 169.5C238.452 169.599 238.278 169.652 238.1 169.652C237.922 169.652 237.748 169.599 237.6 169.5L227.4 164.4L227.9 165.1C228.727 166.345 229.701 167.487 230.8 168.5C231.049 168.782 231.225 169.121 231.312 169.488C231.399 169.854 231.395 170.236 231.3 170.6L231 171.4C230.92 171.517 230.885 171.659 230.9 171.8V172.1L231.1 172.4H231.5L232.2 173L234.6 174.4L234.9 174.6L239.6 177.4H240.2V177.2L240.8 176.7C240.847 176.638 240.907 176.587 240.976 176.553C241.046 176.518 241.122 176.5 241.2 176.5L241.6 176.3H242.2C242.686 176.255 243.175 176.36 243.6 176.6L245.6 177.8L247.9 179.3M317.3 49.2999L316.5 48.1999C316.42 48.0223 316.278 47.88 316.1 47.7999C314.873 46.6365 313.533 45.598 312.1 44.6999H312L311.5 44.3999L307.5 42.5999H306.7C306.505 42.5958 306.312 42.6392 306.138 42.7263C305.964 42.8134 305.814 42.9416 305.7 43.0999L305.3 43.5999L317.3 49.2999ZM320.5 53.6999L319.9 52.9999H319.8L319.2 52.1999L320.5 53.6999Z" stroke="#1D45FE" stroke-width="2" stroke-linejoin="round"/>
<path d="M283.7 179.3C285.3 178.5 286.7 177.8 287.8 177.1H287.9C288.669 176.692 289.405 176.224 290.1 175.7H290.2C290.947 175.12 291.751 174.618 292.6 174.2L292.8 174L294.2 172.9L294.8 172.7H295C295.2 172.8 295.5 172.9 295.6 173.2L295.9 173.6L298.6 171.5C301.805 168.927 304.783 166.084 307.5 163V161.3C307.52 161.087 307.588 160.882 307.7 160.7L308.5 159.5C308.6 159.4 308.6 159.4 308.6 159.3C311.68 155.971 314.52 152.429 317.1 148.7L318 147.5C318.086 147.316 318.231 147.167 318.413 147.076C318.594 146.985 318.801 146.958 319 147L320.1 147.3L322.2 143.8L324.8 139.8C326.4 136.9 328 134.2 329.2 131.4L328.7 130.6C328.612 130.45 328.557 130.284 328.54 130.111C328.523 129.938 328.543 129.764 328.6 129.6L329.5 127.9C331.254 123.716 332.789 119.443 334.1 115.1L334.6 113.8C334.639 113.684 334.705 113.578 334.792 113.492C334.878 113.405 334.984 113.339 335.1 113.3L336.4 112.6C337.911 107.501 338.981 102.282 339.6 97H338.9C338.635 97 338.38 96.8946 338.193 96.7071C338.005 96.5196 337.9 96.2652 337.9 96V93.9C337.945 92.8621 338.046 91.8274 338.2 90.8C338.316 89.8374 338.383 88.8695 338.4 87.9C338.474 86.1238 338.339 84.345 338 82.6C338 82.5 337.9 82.4 337.9 82.3V81C337.919 80.7688 338.026 80.5539 338.2 80.4L339.6 78.6C339.168 75.0164 338.329 71.4936 337.1 68.1L336.5 68.6L336.1 68.8H335.7C335.4 68.8 335.2 68.6 335 68.3V67.9L334.3 66.6C333.01 64.2402 331.467 62.0272 329.7 60L328.9 59.1C328.755 58.9826 328.656 58.8185 328.62 58.636C328.583 58.4535 328.612 58.2639 328.7 58.1L329.3 56.2C327.483 54.7699 325.503 53.5614 323.4 52.6L322.3 52.1L321.5 52.3L320.6 53.4H320.5C320.361 53.5457 320.186 53.6508 319.992 53.7036C319.798 53.7565 319.593 53.7553 319.4 53.7L318.2 53.3L317 53C314.795 52.5621 312.545 52.3942 310.3 52.5H308.2C307.935 52.5 307.68 52.3946 307.493 52.2071C307.305 52.0196 307.2 51.7652 307.2 51.5V50.5C303.764 51.0171 300.405 51.9576 297.2 53.3V53.1C297.239 52.9716 297.303 52.8522 297.389 52.7492C297.475 52.6461 297.581 52.5613 297.7 52.5C301.072 51.0947 304.549 49.9579 308.1 49.1C308.426 49.0922 308.744 49.1983 309 49.4L309.8 50.2C310.058 50.5074 310.379 50.7558 310.741 50.9284C311.103 51.1009 311.499 51.1935 311.9 51.2C314.344 51.0964 316.793 51.2641 319.2 51.7L317.3 49.2L305.3 43.2H305.2C305.045 43.3941 304.846 43.5494 304.621 43.6535C304.395 43.7577 304.148 43.8078 303.9 43.8H303.5C301.95 43.2771 300.334 42.9742 298.7 42.9H298.2L308.3 48.9L296.2 51.7L282.5 43.8C286.009 42.4362 289.668 41.4962 293.4 41C289.31 41.5398 285.309 42.6157 281.5 44.2C281.217 44.2859 280.959 44.4404 280.75 44.6497C280.54 44.859 280.386 45.1167 280.3 45.4V45.7C280.163 46.1294 279.943 46.5273 279.651 46.8707C279.359 47.214 279.002 47.4959 278.6 47.7L276.1 48.9L273.5 50.2C272.731 50.6075 271.995 51.0757 271.3 51.6H271.2C270.453 52.1798 269.649 52.6824 268.8 53.1H268.6L282 60.2C282.141 60.2569 282.263 60.3531 282.352 60.4771C282.441 60.6011 282.492 60.7478 282.5 60.9H282.6C282.871 61.2297 283.246 61.4583 283.663 61.549C284.08 61.6397 284.516 61.5872 284.9 61.4H285L285.3 61.2C286.83 60.0968 288.473 59.1583 290.2 58.4L292.8 57.1L294.1 56.4L295.1 55.7L296.1 55V54.7L295 54L280.6 45.5V45.2L296.2 54L296.7 54.3C296.453 54.7649 296.113 55.1736 295.7 55.5V55.7C295.58 55.9664 295.366 56.1797 295.1 56.3L293.9 56.7L293 57.1C291.751 57.7118 290.547 58.4137 289.4 59.2H289.2L287 60.6L284.6 62.2L283 63.4C282.897 63.5028 282.769 63.5758 282.628 63.611C282.487 63.6463 282.339 63.6424 282.2 63.6C282.062 63.5856 281.928 63.5425 281.808 63.4737C281.687 63.4048 281.582 63.3116 281.5 63.2L281.3 62.8C277.177 66.0058 273.299 69.5156 269.7 73.3V75C269.68 75.2126 269.611 75.4179 269.5 75.6L268.6 76.9C267.519 77.9946 266.516 79.1642 265.6 80.4C263.572 82.6095 261.733 84.9844 260.1 87.5L259.2 88.7C259.073 88.8634 258.902 88.9877 258.708 89.0584C258.513 89.1292 258.302 89.1436 258.1 89.1L257.2 88.9C256.3 90.8 255.3 92.6 254.2 94.5C253.1 96.4 253.3 96 252.8 96.8C251.177 99.5155 249.708 102.32 248.4 105.2L248.8 105.8V106C248.888 106.15 248.942 106.316 248.96 106.489C248.977 106.662 248.957 106.836 248.9 107L248 108.7C246.9 111.5 245.8 114.2 244.8 117L243.4 122.3L243 123.5L242.6 123.2H242.4L241.9 123.5L241.1 123.9C239.596 128.933 238.525 134.085 237.9 139.3H238.6C238.858 139.323 239.099 139.435 239.282 139.618C239.465 139.801 239.577 140.042 239.6 140.3V142.5C239.554 143.538 239.454 144.573 239.3 145.6C239.18 146.562 239.113 147.53 239.1 148.5C239.03 150.276 239.164 152.054 239.5 153.8V155.6V157.3L238.7 156.9L237.9 157.7V158L238.2 159.8C238.578 162.208 239.147 164.582 239.9 166.9C240 167.3 240.2 167.7 240.3 168.2L241 167.7C241.103 167.597 241.231 167.524 241.372 167.489C241.513 167.454 241.661 167.458 241.8 167.5C242.07 167.608 242.31 167.779 242.5 168L243.3 169.7C244.414 171.729 245.684 173.668 247.1 175.5L247.6 176L247.9 176.4L248.7 177.2C248.844 177.317 248.943 177.481 248.98 177.664C249.016 177.847 248.988 178.036 248.9 178.2L248.7 179.3C248.543 179.589 248.41 179.89 248.3 180.2L248.9 180.7L250.6 182.1L252.3 183.1M331 109.6C326.201 128.423 316.346 145.575 302.5 159.2C298.222 163.419 293.455 167.112 288.3 170.2L286.3 171.3C278.6 175.3 271.6 176.8 265.6 176.1C263.09 175.856 260.648 175.143 258.4 174L257.1 173.3C249.3 168.7 244.4 158.8 244.4 144.5C244.4 130.2 249.4 114.2 257.6 100.1C265.8 86 277.1 73.7 289.3 66.5C301.5 59.3 312.7 58.8 320.5 63.4C322.597 64.6282 324.46 66.2197 326 68.1C330.6 73.5 333.2 81.6 333.2 92.2C333.14 98.0654 332.401 103.904 331 109.6Z" stroke="#1D45FE" stroke-width="2" stroke-linejoin="round"/>
<path d="M275.2 169.1C268.2 171 262.1 170.3 257.3 167.5C250.2 163.4 245.7 154.3 245.7 141C245.7 127.7 250.2 113.1 257.6 100.2C265 87.3002 275.3 76.0002 286.7 69.5002C298.1 63.0002 308.1 62.4002 315.2 66.6002C319.7 69.2002 323.1 73.8002 325.1 80.2002C326.277 84.3632 326.85 88.6741 326.8 93.0002C326.8 106.3 322.3 121 314.8 133.9M275.2 169.1L280.6 167.2M275.2 169.1L278.9 167.9L280.6 167.2M314.8 133.9C307.3 146.8 297.1 158.1 285.7 164.6M314.8 133.9C307.4 146.9 297.1 158.1 285.7 164.6M285.7 164.6C284.609 165.278 283.473 165.879 282.3 166.4L280.6 167.2M247 179.6H246.8L246.3 179.3L245.9 179.1L242.8 177.3L241.8 176.7L233.3 171.9L232.2 171.2L231.9 171.7L235.6 173.9H235.7L241 177.1L241.7 177.5L245.7 180H247V179.6ZM336 68.5002L334.9 67.8002V68.2002C335.1 68.5002 335.3 68.7002 335.6 68.7002H336V68.5002ZM326 68.1002C324.46 66.2199 322.597 64.6284 320.5 63.4002C312.7 58.8002 301.8 59.3002 289.3 66.5002C276.8 73.7002 265.8 85.9002 257.6 100.1C249.4 114.3 244.4 130.1 244.4 144.5C244.4 158.9 249.3 168.7 257.1 173.3L258.4 174C260.648 175.144 263.09 175.856 265.6 176.1C271.6 176.8 278.6 175.3 286.3 171.3L288.3 170.2C293.455 167.112 298.222 163.42 302.5 159.2L331 109.6C332.401 103.904 333.14 98.0656 333.2 92.2002C333.2 81.6002 330.6 73.5002 326 68.1002ZM319.8 52.5002L316.9 53.0002L318.1 53.3002L319.3 53.7002C319.493 53.7555 319.698 53.7567 319.892 53.7039C320.086 53.651 320.261 53.5459 320.4 53.4002H320.5L321.4 52.3002L319.8 52.5002ZM323.3 52.5002L322.4 51.4002L322.1 51.2002L316.1 47.6002L307.5 42.4002H306.6C306.351 42.3924 306.105 42.4425 305.879 42.5467C305.653 42.6508 305.455 42.8061 305.3 43.0002L305.1 43.3002H305.3L317.3 49.3002L320.1 50.7002L321.9 51.6002L322.8 52.0002H322.2L323.3 52.5002ZM296.3 54.0002L280.7 45.2002V45.5002L295 54.0002L296.1 54.7002V55.0002L295.1 55.7002L294.1 56.4002L293.1 57.1002L294 56.7002L295.2 56.3002C295.466 56.18 295.68 55.9666 295.8 55.7002V55.5002C296.213 55.1738 296.553 54.7651 296.8 54.3002L296.3 54.0002ZM294.2 172.8L292.8 173.9L293.9 174.2L294.8 172.6L294.2 172.8ZM269.1 74.5002L268.6 74.2002L269.1 74.7002H269.2L268.7 75.5002H268.6L265.6 80.4002C266.516 79.1644 267.519 77.9948 268.6 76.9002L269.5 75.6002C269.611 75.4181 269.68 75.2128 269.7 75.0002V74.2002L269.1 74.5002ZM248.8 177.2L248 176.4L247.7 176L247.2 175.5L247.4 176.1L247.8 178.1L248 179.5L249 178.2C249.088 178.036 249.116 177.847 249.08 177.664C249.043 177.482 248.944 177.318 248.8 177.2ZM248.9 106.2V106L248.2 106.8L247.8 107.7H247.6L244.9 117.2C245.9 114.4 247 111.7 248.1 108.9L249 107.2C249.056 107.036 249.077 106.862 249.06 106.689C249.042 106.517 248.988 106.35 248.9 106.2ZM242 123.1V123.8L242.5 123.5H242.7L242 123.1ZM238.8 156.9L238.2 156.5L237.2 155.9L222.4 147.6L221.8 149L236.4 156.9L237.5 157.5H237.7L238 157.8V157.5L238.8 156.9Z" stroke="#1D45FE" stroke-width="2"/>
<path d="M238.6 169.6C238.452 169.699 238.278 169.752 238.1 169.752C237.922 169.752 237.748 169.699 237.6 169.6L227.4 164.5L224 162.8L223.6 162.4L222.7 160C221.88 157.296 221.344 154.515 221.1 151.7C221.094 151.521 221.136 151.345 221.221 151.188C221.306 151.031 221.432 150.9 221.585 150.808C221.738 150.716 221.913 150.667 222.092 150.666C222.27 150.664 222.446 150.71 222.6 150.8L236.4 158.8C236.7 163.2 237.1 166.3 238.6 169.6Z" stroke="#1D45FE" stroke-width="2"/>
<path d="M240 166.9L239 169.1C238.925 169.306 238.685 168.982 238.5 169.1C237 165.8 236.7 163.2 236.4 158.7L238.3 159.8C238.678 162.208 239.247 164.582 240 166.9Z" fill="#131519" stroke="#1D45FE" stroke-width="2"/>
<path d="M239.6 123.6L236.9 140.3C236.874 140.461 236.809 140.614 236.711 140.744C236.612 140.875 236.484 140.979 236.336 141.048C236.188 141.117 236.025 141.149 235.862 141.14C235.699 141.132 235.54 141.084 235.4 141L220.6 132.7C220.443 132.61 220.314 132.478 220.225 132.32C220.137 132.161 220.094 131.981 220.1 131.8C220.6 126.6 222.4 121.3 224.2 116C224.243 115.862 224.315 115.734 224.412 115.627C224.509 115.519 224.628 115.434 224.762 115.377C224.895 115.32 225.039 115.292 225.183 115.296C225.328 115.3 225.47 115.336 225.6 115.4L239.1 122.6C239.258 122.714 239.387 122.864 239.474 123.038C239.561 123.213 239.604 123.405 239.6 123.6V123.6Z" stroke="#1D45FE" stroke-width="2"/>
<path d="M256.4 87.3998L246 104C245.882 104.144 245.718 104.243 245.536 104.28C245.353 104.316 245.164 104.288 245 104.2L231.8 96.9998C234.538 90.8776 237.889 85.0479 241.8 79.5998C241.9 79.3998 242 79.3998 242.2 79.4998L256.4 87.3998Z" stroke="#1D45FE" stroke-width="2"/>
<path d="M282.1 62.1L269.9 72.2L268.7 73.2C268.538 73.3447 268.333 73.4328 268.117 73.4508C267.9 73.4689 267.684 73.4159 267.5 73.3L254.1 64.8C253.882 64.6737 253.719 64.4695 253.645 64.2284C253.571 63.9874 253.59 63.7271 253.7 63.5L253.9 63.3C257.58 59.4685 261.487 55.862 265.6 52.5C265.758 52.3878 265.943 52.3194 266.136 52.3019C266.33 52.2843 266.524 52.3182 266.7 52.4L268.5 53.3L281.9 60.4C282.041 60.4569 282.163 60.553 282.252 60.677C282.341 60.801 282.392 60.9478 282.4 61.1C282.447 61.2781 282.444 61.4658 282.391 61.6422C282.338 61.8187 282.237 61.9771 282.1 62.1V62.1Z" stroke="#1D45FE" stroke-width="2" stroke-linejoin="round"/>
<path d="M308.3 48.9998L296.2 51.7998L282.5 43.8998C286.009 42.536 289.668 41.5961 293.4 41.0998H293.5C294.202 41.0619 294.899 41.2361 295.5 41.5998L298.2 43.0998L308.3 48.9998Z" stroke="#1D45FE" stroke-width="2" stroke-linejoin="round"/>
<path d="M312 44.5L322.1 49.7L321.6 49.5L312 44.5Z" stroke="#1D45FE" stroke-width="2" stroke-linejoin="round"/>
<path d="M339.7 94.3999V94.0999C340.022 92.1842 340.156 90.2417 340.1 88.2999C340.079 87.4303 340.012 86.5624 339.9 85.6999C339.784 84.7708 339.717 83.8361 339.7 82.8999V82.5999C339.699 81.9199 339.909 81.2563 340.3 80.6999L341.1 79.7999C341.252 79.6 341.323 79.3501 341.3 79.0999C340.972 74.8103 339.889 70.6124 338.1 66.6999L337.8 66.9999C337.478 67.2079 337.096 67.3013 336.715 67.265C336.334 67.2287 335.976 67.0648 335.7 66.7999C335.6 66.6999 335.5 66.5999 335.5 66.4999C334.025 64.004 332.353 61.6298 330.5 59.3999C330.219 59.1357 330.037 58.784 329.982 58.4024C329.928 58.0209 330.004 57.6321 330.2 57.2999L330.8 56.2999C330.923 56.1111 330.97 55.8832 330.933 55.661C330.896 55.4388 330.777 55.2386 330.6 55.0999C328.778 53.7806 326.874 52.5782 324.9 51.4999L323.7 50.6999C323.48 50.5633 323.219 50.5085 322.963 50.5451C322.707 50.5817 322.472 50.7073 322.3 50.8999L322.1 51.1999L321.9 51.3999C321.545 51.7251 321.081 51.9038 320.6 51.8999H320.1L319.2 51.5999C316.792 51.164 314.344 50.9963 311.9 51.0999C311.499 51.0935 311.103 51.0008 310.741 50.8283C310.379 50.6558 310.058 50.4073 309.8 50.0999L309 49.2999C308.744 49.0982 308.426 48.9921 308.1 48.9999C304.549 49.8578 301.072 50.9946 297.7 52.3999C297.58 52.4613 297.475 52.546 297.389 52.6491C297.303 52.7522 297.239 52.8715 297.2 52.9999V53.1999C300.405 51.8575 303.764 50.917 307.2 50.3999V51.3999C307.2 51.6651 307.305 51.9195 307.493 52.107C307.68 52.2946 307.935 52.3999 308.2 52.3999H310.3C312.545 52.2941 314.795 52.462 317 52.8999L318.2 53.1999L319.4 53.5999C319.593 53.6552 319.798 53.6564 319.992 53.6036C320.186 53.5507 320.361 53.4457 320.5 53.2999H320.6L321.5 52.1999L322.3 51.9999L323.4 52.4999C325.502 53.4613 327.483 54.6698 329.3 56.0999L328.7 57.9999C328.612 58.1638 328.583 58.3534 328.62 58.5359C328.656 58.7184 328.755 58.8825 328.9 58.9999L329.7 59.8999C331.467 61.9272 333.01 64.1401 334.3 66.4999L335 67.7999V68.1999C335.2 68.4999 335.4 68.6999 335.7 68.6999H336.1L336.5 68.4999L337.1 67.9999C338.337 71.4257 339.176 74.9824 339.6 78.5999L338.2 80.3999C338.026 80.5538 337.919 80.7687 337.9 80.9999V82.2999C337.9 82.3999 338 82.4999 338 82.5999C338.339 84.3449 338.474 86.1237 338.4 87.8999C338.383 88.8694 338.316 89.8373 338.2 90.7999C338.045 91.8273 337.945 92.862 337.9 93.8999V95.9999C337.9 96.2651 338.005 96.5195 338.193 96.707C338.38 96.8946 338.635 96.9999 338.9 96.9999H339.6C338.976 102.248 337.905 107.434 336.4 112.5L335.1 113.2C334.984 113.239 334.878 113.305 334.792 113.392C334.705 113.478 334.639 113.584 334.6 113.7L334.1 115C332.789 119.343 331.254 123.616 329.5 127.8L328.6 129.5C328.543 129.664 328.523 129.838 328.54 130.011C328.557 130.184 328.612 130.35 328.7 130.5L329.2 131.3C328 134.1 326.4 136.8 324.8 139.7L322.2 143.7L320.1 147.2L319 146.9C318.801 146.858 318.594 146.885 318.413 146.976C318.231 147.067 318.086 147.216 318 147.4L317.1 148.6C314.52 152.329 311.679 155.871 308.6 159.2C308.6 159.3 308.6 159.3 308.5 159.4L307.7 160.6C307.588 160.782 307.52 160.987 307.5 161.2V162.9C304.783 165.983 301.805 168.827 298.6 171.4L295.9 173.5L295.6 173.1C295.5 172.8 295.2 172.7 295 172.6H294.8L294.2 172.8L292.8 173.9L292.6 174.1C291.751 174.518 290.947 175.02 290.2 175.6H290.1C289.405 176.124 288.669 176.592 287.9 177H287.8C286.7 177.7 285.3 178.4 283.7 179.2L283.3 179.5L282.1 179.9C281.947 179.943 281.805 180.019 281.684 180.123C281.563 180.227 281.466 180.355 281.4 180.5L280.7 182.6C280.971 181.841 281.502 181.203 282.2 180.8H282.4L284.9 179.5L285.6 179.2L287.5 178.2C289.209 177.368 290.848 176.398 292.4 175.3H292.8C293.184 175.113 293.619 175.06 294.037 175.151C294.454 175.242 294.828 175.47 295.1 175.8C296.939 174.458 298.708 173.023 300.4 171.5C303 169.3 305.5 166.7 308.1 164.2C308.28 164.01 308.386 163.762 308.4 163.5V163C308.384 162.223 308.671 161.47 309.2 160.9L309.5 160.6C312.523 157.284 315.328 153.777 317.9 150.1C318.132 149.662 318.505 149.315 318.958 149.115C319.412 148.915 319.92 148.875 320.4 149H320.5C324.163 143.414 327.47 137.603 330.4 131.6C330.421 131.581 330.438 131.558 330.45 131.532C330.461 131.506 330.468 131.478 330.468 131.45C330.468 131.422 330.461 131.393 330.45 131.368C330.438 131.342 330.421 131.319 330.4 131.3C330.161 130.968 330.024 130.573 330.007 130.165C329.989 129.756 330.091 129.351 330.3 129V128.6C332.323 124.572 334.028 120.393 335.4 116.1C335.407 115.915 335.477 115.738 335.6 115.6C335.895 115.022 336.345 114.537 336.9 114.2H337.3C337.541 114.03 337.717 113.783 337.8 113.5C339.445 107.908 340.615 102.188 341.3 96.3999C341.063 96.3751 340.833 96.3034 340.624 96.1891C340.415 96.0749 340.231 95.9202 340.082 95.7342C339.933 95.5481 339.823 95.3344 339.757 95.1054C339.692 94.8763 339.672 94.6365 339.7 94.3999ZM326 68.0999C324.46 66.2196 322.597 64.6281 320.5 63.3999C312.7 58.7999 301.8 59.2999 289.3 66.4999C276.8 73.6999 265.8 85.8999 257.6 100.1C249.4 114.3 244.4 130.1 244.4 144.5C244.4 158.9 249.3 168.7 257.1 173.3L258.4 174C260.648 175.143 263.09 175.856 265.6 176.1C271.6 176.8 278.6 175.3 286.3 171.3L288.3 170.2C293.455 167.112 298.222 163.419 302.5 159.2C316.345 145.575 326.201 128.423 331 109.6C332.401 103.904 333.14 98.0653 333.2 92.1999C333.2 81.5999 330.6 73.4999 326 68.0999ZM285.7 164.6C284.609 165.277 283.473 165.879 282.3 166.4L280.6 167.2L278.9 167.9L275.2 169.1C268.2 171 262.1 170.3 257.3 167.5C250.2 163.4 245.7 154.3 245.7 141C245.7 127.7 250.2 113.1 257.6 100.2C265 87.2999 275.3 75.9999 286.7 69.4999C298.1 62.9999 308.1 62.3999 315.2 66.5999C319.7 69.1999 323.1 73.7999 325.1 80.1999C326.277 84.363 326.85 88.6738 326.8 92.9999C326.8 106.3 322.3 121 314.8 133.9C307.3 146.8 297.1 158.1 285.7 164.6ZM295.4 55.6999H295.2L294 56.2999L292.7 56.9999L290.1 58.2999C288.372 59.0582 286.73 59.9967 285.2 61.0999L284.9 61.2999H284.8C284.416 61.4872 283.98 61.5397 283.563 61.4489C283.146 61.3582 282.771 61.1296 282.5 60.7999H282.4C282.447 60.9781 282.444 61.1657 282.391 61.3422C282.338 61.5186 282.237 61.677 282.1 61.7999L269.9 72.1999L269.5 72.5999C269.402 72.6876 269.324 72.7957 269.272 72.9166C269.22 73.0376 269.196 73.1684 269.2 73.2999V73.7999C269.216 74.0377 269.182 74.2762 269.1 74.4999V74.6999C268.987 74.9763 268.853 75.2438 268.7 75.4999C268.6 75.5999 268.5 75.7999 268.3 75.8999L268.1 76.1999C265.053 79.4953 262.246 83.0043 259.7 86.6999C259.455 87.1263 259.081 87.4632 258.631 87.6612C258.181 87.8591 257.679 87.9078 257.2 87.7999H257C253.5 93.2999 248.8 98.6999 246 104.6C245.9 104.7 247.1 105.4 247.2 105.5C247.439 105.832 247.575 106.226 247.593 106.635C247.611 107.044 247.509 107.448 247.3 107.8V108C245.254 112.052 243.549 116.266 242.2 120.6C242.2 120.8 242.1 120.9 242 121.1C241.693 121.679 241.2 122.137 240.6 122.4L240.3 122.6C240.18 122.661 240.075 122.746 239.989 122.849C239.903 122.952 239.839 123.071 239.8 123.2C239.68 123.812 239.513 124.414 239.3 125C238.9 126.8 238.4 128.6 238 130.4C237.191 133.654 236.623 136.963 236.3 140.3H236.8C237.141 140.428 237.432 140.662 237.631 140.968C237.829 141.274 237.923 141.636 237.9 142V142.3C237.578 144.182 237.444 146.091 237.5 148C237.5 148.8 237.6 149.7 237.7 150.7C237.8 151.7 237.9 152.7 237.9 153.6C237.924 153.963 237.875 154.328 237.754 154.671C237.634 155.015 237.445 155.331 237.2 155.6V155.8L236.7 156.2L236.5 156.6C236.42 156.717 236.385 156.859 236.4 157C236.4 157.5 236.5 158 236.5 158.4C236.8 162.9 237.2 166 238.7 169.3L239.5 169C240.027 169.007 239.831 169.523 240.2 169.9L240.6 170.4C241.79 172.515 243.162 174.523 244.7 176.4L245.5 177.4C245.684 177.518 245.825 177.694 245.9 177.9C245.9 178 246 178.1 246 178.3V179.1C246.004 179.154 245.998 179.209 245.981 179.26C245.964 179.312 245.936 179.359 245.9 179.4L245.7 180.1C245.6 180.1 245.6 180.2 245.6 180.3C245.584 180.409 245.593 180.52 245.628 180.624C245.663 180.728 245.722 180.823 245.8 180.9C245.8 180.926 245.81 180.952 245.829 180.971C245.848 180.989 245.873 181 245.9 181L246.6 181.6L249.1 183.5L249.7 183.8H249.8C251.182 184.599 252.619 185.301 254.1 185.9C254.287 185.95 254.486 185.938 254.666 185.866C254.846 185.794 254.999 185.665 255.1 185.5L255.8 184.7C256.144 184.346 256.607 184.133 257.1 184.1H257.6C260 184.9 262.8 184.9 265.8 184.9C266.277 184.9 266.735 185.09 267.073 185.427C267.41 185.765 267.6 186.223 267.6 186.7V186.9C271.854 186.316 276.019 185.208 280 183.6C280.119 183.539 280.225 183.454 280.311 183.351C280.397 183.248 280.461 183.128 280.5 183L280.8 182.1C277.398 183.538 273.841 184.578 270.2 185.2V184.2C270.209 184.043 270.176 183.887 270.106 183.747C270.036 183.606 269.93 183.487 269.8 183.4C269.723 183.322 269.628 183.263 269.524 183.228C269.419 183.194 269.309 183.184 269.2 183.2H265.6C263.441 183.205 261.291 182.936 259.2 182.4L257.9 181.9C257.698 181.843 257.483 181.85 257.285 181.922C257.088 181.994 256.918 182.126 256.8 182.3L255.5 183.9C254.463 183.516 253.46 183.048 252.5 182.5L250.8 181.5L249.1 180.1L248.5 179.6L249.1 177.6C249.188 177.436 249.216 177.246 249.18 177.064C249.143 176.881 249.044 176.717 248.9 176.6L248.1 175.8L247.8 175.4L247.3 174.9C245.884 173.068 244.614 171.129 243.5 169.1L242.7 167.4C242.51 167.179 242.27 167.008 242 166.9C241.861 166.857 241.713 166.854 241.572 166.889C241.431 166.924 241.302 166.997 241.2 167.1L240.5 167.6C240.4 167.1 240.2 166.7 240.1 166.3C239.347 163.982 238.778 161.608 238.4 159.2L238.1 157.4V157.1L238.9 156.3L239.7 156.7V155.6V154.1C239.364 152.354 239.23 150.576 239.3 148.8C239.313 147.83 239.38 146.862 239.5 145.9C239.654 144.873 239.754 143.838 239.8 142.8V140.6C239.777 140.342 239.665 140.101 239.482 139.918C239.299 139.735 239.057 139.622 238.8 139.6H238.1C238.725 134.385 239.795 129.232 241.3 124.2L242.1 123.8L242.6 123.5H242.8L243.2 123.8L243.6 122.6L245 117.3C246 114.5 247.1 111.8 248.2 109L249.1 107.3C249.156 107.136 249.177 106.962 249.16 106.789C249.142 106.616 249.088 106.449 249 106.3V106.1L248.6 105.5C249.908 102.62 251.377 99.8154 253 97.0999C253.5 96.2999 253.9 95.4999 254.4 94.7999C254.9 94.0999 256.5 91.0999 257.4 89.1999L258.3 89.3999C258.502 89.4435 258.713 89.4291 258.907 89.3584C259.102 89.2876 259.273 89.1634 259.4 88.9999L260.3 87.7999C261.932 85.2844 263.772 82.9095 265.8 80.6999C266.716 79.4641 267.719 78.2946 268.8 77.1999L269.7 75.8999C269.811 75.7178 269.88 75.5126 269.9 75.2999V73.2999C273.499 69.5155 277.377 66.0057 281.5 62.7999L281.7 63.1999C281.782 63.3115 281.887 63.4047 282.008 63.4736C282.128 63.5424 282.262 63.5855 282.4 63.5999C282.539 63.6424 282.687 63.6462 282.828 63.6109C282.969 63.5757 283.097 63.5027 283.2 63.3999L284.8 62.1999L287.2 60.6999L289.4 59.2999H289.6C290.747 58.5136 291.951 57.8117 293.2 57.1999L294.1 56.7999L295.3 56.3999C295.566 56.2797 295.78 56.0663 295.9 55.7999V55.5999L295.4 55.6999Z" fill="#1D45FE" stroke="#1D45FE" stroke-width="2" stroke-linejoin="round"/>
<path d="M326 68.0998C324.46 66.2195 322.597 64.628 320.5 63.3998C312.7 58.7998 301.8 59.2998 289.3 66.4998C276.8 73.6998 265.8 85.8998 257.6 100.1C249.4 114.3 244.4 130.1 244.4 144.5C244.4 158.9 249.3 168.7 257.1 173.3L258.4 174C260.648 175.143 263.09 175.855 265.6 176.1C271.6 176.8 278.6 175.3 286.3 171.3L288.3 170.2C293.455 167.112 298.222 163.419 302.5 159.2C316.345 145.575 326.201 128.423 331 109.6C332.401 103.904 333.14 98.0652 333.2 92.1998C333.2 81.5998 330.6 73.4998 326 68.0998ZM285.7 164.6C284.609 165.277 283.473 165.879 282.3 166.4L280.6 167.2L278.9 167.9L275.2 169.1C268.2 171 262.1 170.3 257.3 167.5C250.2 163.4 245.7 154.3 245.7 141C245.7 127.7 250.2 113.1 257.6 100.2C265 87.2998 275.3 75.9998 286.7 69.4998C298.1 62.9998 308.1 62.3998 315.2 66.5998C319.7 69.1998 323.1 73.7998 325.1 80.1998C326.277 84.3628 326.85 88.6737 326.8 92.9998C326.8 106.3 322.3 121 314.8 133.9C307.3 146.8 297.1 158.1 285.7 164.6ZM321.7 51.7998L321.4 52.1998L322.2 51.9998L321.7 51.7998ZM249 180.7L250.7 182.1L249 180.7ZM243.5 121.6L243 122.8C242.958 122.995 242.853 123.171 242.7 123.3L243.1 123.6L243.5 122.4L244.9 117.1C244.4 118.7 243.9 120.1 243.5 121.6ZM239.4 156.3L238.8 156.9L239.6 157.3V155.6C239.6 155.9 239.6 156.1 239.4 156.3Z" fill="#131519" stroke="#1D45FE" stroke-width="2" stroke-linejoin="round"/>
<path d="M326 68.1001C324.46 66.2197 322.597 64.6283 320.5 63.4001C312.7 58.8001 301.8 59.3001 289.3 66.5001C276.8 73.7001 265.8 85.9001 257.6 100.1C249.4 114.3 244.4 130.1 244.4 144.5C244.4 158.9 249.3 168.7 257.1 173.3L258.4 174C260.648 175.143 263.09 175.856 265.6 176.1C271.6 176.8 278.6 175.3 286.3 171.3L288.3 170.2C293.455 167.112 298.222 163.419 302.5 159.2C316.346 145.575 326.201 128.423 331 109.6C332.401 103.904 333.14 98.0655 333.2 92.2001C333.2 81.6001 330.6 73.5001 326 68.1001ZM285.7 164.6C284.609 165.278 283.473 165.879 282.3 166.4L280.6 167.2L278.9 167.9L275.2 169.1C268.2 171 262.1 170.3 257.3 167.5C250.2 163.4 245.7 154.3 245.7 141C245.7 127.7 250.2 113.1 257.6 100.2C265 87.3001 275.3 76.0001 286.7 69.5001C298.1 63.0001 308.1 62.4001 315.2 66.6001C319.7 69.2001 323.1 73.8001 325.1 80.2001C326.278 84.3631 326.85 88.674 326.8 93.0001C326.8 106.3 322.3 121 314.8 133.9C307.3 146.8 297.1 158.1 285.7 164.6Z" fill="#1D45FE" stroke="#1D45FE" stroke-width="2"/>
<path d="M132.7 468.5C132.751 469.176 132.642 469.854 132.382 470.48C132.121 471.106 131.716 471.661 131.2 472.1C129.969 473.036 128.527 473.655 127 473.9C125.449 474.182 123.862 474.216 122.3 474C121.714 473.907 121.143 473.739 120.6 473.5L120 473.2V472.8C119.9 472.4 119.8 471.8 119.6 471C119.4 470.2 119.1 468.2 118.6 466.3H118.7C121.032 467.156 123.53 467.464 126 467.2V467.2C128.535 467.012 130.916 465.91 132.7 464.1C132.7 464.1 132.8 465.9 132.8 466.4C132.723 466.896 132.69 467.398 132.7 467.9V468.2V468.5Z" stroke="#586068" stroke-width="2"/>
</svg>
