<svg width="315" height="258" viewBox="0 0 315 258" fill="none" xmlns="http://www.w3.org/2000/svg">
<g clip-path="url(#clip0_738_2301)">
<path d="M146.96 79.3799L148.87 92.4599" stroke="#586068" stroke-width="4" stroke-linecap="round" stroke-linejoin="round"/>
<path d="M140.87 37.53L140.1 32.25L135.69 2L274.78 51.93C284.21 55.31 291.61 62.8 294.83 72.3C304.65 101.22 308.8 125.93 299.15 140.38C296.09 144.96 291.05 147.82 285.55 148.18L260.97 149.79L178.38 155.19H178.32L158.2 156.51L154.32 129.85" stroke="#586068" stroke-width="4" stroke-linecap="round" stroke-linejoin="round"/>
<path d="M146.96 79.3799L148.87 92.4599" stroke="#586068" stroke-width="4" stroke-linecap="round" stroke-linejoin="round"/>
<path d="M140.87 37.53L140.1 32.25L135.69 2L2.0002 19.45L11.5302 63.78L16.3002 86L19.8402 102.45L24.2102 122.8L31.4602 156.51H125.98H158.2L154.32 129.85" stroke="#586068" stroke-width="4" stroke-linecap="round" stroke-linejoin="round"/>
<path d="M236.76 252.66L312.56 236.28" stroke="#586068" stroke-width="4" stroke-linecap="round" stroke-linejoin="round"/>
<path d="M243.26 215.22L295.76 203.87" stroke="#586068" stroke-width="4" stroke-linecap="round" stroke-linejoin="round"/>
<path d="M97.6299 54.3499C96.1399 53.9599 94.6099 53.7099 93.0299 53.5999C83.5799 52.9499 74.7799 57.6799 68.6699 65.6199" stroke="#586068" stroke-width="4" stroke-linecap="round" stroke-linejoin="round"/>
<path d="M63.5103 74.6399V74.6299" stroke="#586068" stroke-width="4" stroke-linecap="round" stroke-linejoin="round"/>
<path d="M107.58 120.33C102.03 125.17 95.1701 127.83 87.9301 127.33C78.3501 126.67 70.1901 120.61 65.2601 111.71V111.7" stroke="#586068" stroke-width="4" stroke-linecap="round" stroke-linejoin="round"/>
<path d="M31.4598 156.51L35.5898 118.77" stroke="#586068" stroke-width="4" stroke-linecap="round" stroke-linejoin="round"/>
<path d="M140.1 32.25L43.7301 44.43L40.9401 69.92" stroke="#586068" stroke-width="4" stroke-linecap="round" stroke-linejoin="round"/>
<path d="M16.2999 86L19.8399 102.45L24.2099 122.8L35.5899 118.77L59.1099 110.45" stroke="#1D45FE" stroke-width="4" stroke-linecap="round" stroke-linejoin="round"/>
<path d="M124.4 87.35H124.41L146.96 79.38L147.32 79.25L161.7 66.5V59.19L157.76 56.37L158.33 51.02L151.85 47.08L150.73 42.02L146.79 39.77L148.48 34.98L141.22 37.39L140.87 37.53L97.6302 54.35L68.6702 65.62L51.7902 72.19" stroke="#1D45FE" stroke-width="4" stroke-linecap="round" stroke-linejoin="round"/>
<path d="M201.55 169.2V242.82C201.55 260.33 243.26 260.33 243.26 242.82V165.43" stroke="#586068" stroke-width="4" stroke-linecap="round" stroke-linejoin="round"/>
<path d="M178.32 155.19H178.38H178.47" stroke="#586068" stroke-width="4" stroke-linecap="round" stroke-linejoin="round"/>
<path d="M125.98 156.51V168.89L178.47 171.29" stroke="#586068" stroke-width="4" stroke-linecap="round" stroke-linejoin="round"/>
<path d="M260.97 149.79V163.83L178.47 171.29V155.19L260.97 149.79Z" stroke="#586068" stroke-width="4" stroke-linecap="round" stroke-linejoin="round"/>
<path d="M168.01 89.95L149.05 92.5L11.5302 63.78L19.8402 102.45L154.5 129.89L176.45 124.57L173.07 118.94L175.32 113.31L171.38 109.92L174.48 102.05L169.69 95.86L170.82 89.95H168.01Z" stroke="#1D45FE" stroke-width="4" stroke-linecap="round" stroke-linejoin="round"/>
<path d="M284.49 81.6201C284.49 81.0901 283.35 63.9901 259.23 59.0801" stroke="#586068" stroke-width="10" stroke-linecap="round" stroke-linejoin="round"/>
<path d="M287.49 101.81C284.745 101.81 282.52 99.585 282.52 96.8401C282.52 94.0953 284.745 91.8701 287.49 91.8701C290.235 91.8701 292.46 94.0953 292.46 96.8401C292.46 99.585 290.235 101.81 287.49 101.81Z" fill="#586068"/>
</g>
<defs>
<clipPath id="clip0_738_2301">
<rect width="314.56" height="257.95" fill="white" transform="matrix(-1 0 0 1 314.56 0)"/>
</clipPath>
</defs>
</svg>
